<?xml version="1.0" standalone="no"?>
<!DOCTYPE svg PUBLIC "-//W3C//DTD SVG 1.1//EN" "http://www.w3.org/Graphics/SVG/1.1/DTD/svg11.dtd" >
<svg xmlns="http://www.w3.org/2000/svg" xmlns:xlink="http://www.w3.org/1999/xlink" version="1.1">
<metadata>
Created by FontForge 20161003 at Fri Mar 17 10:36:25 2017
 By www-data
Copyright (C) 2002, 2011 Hoefler &#38; Frere-Jones. http://www.typography.com
</metadata>
<defs>
<font id="IdlewildMedium" horiz-adv-x="1276" >
  <font-face 
    font-family="IdlewildMedium"
    font-weight="350"
    font-stretch="normal"
    units-per-em="1000"
    panose-1="0 0 0 0 0 0 0 0 0 0"
    ascent="800"
    descent="-200"
    x-height="700"
    cap-height="700"
    bbox="-202 -266 3193 1114"
    underline-thickness="50"
    underline-position="-150"
    unicode-range="U+0020-FB04"
  />
<missing-glyph horiz-adv-x="500" 
d="M0 -200v1000h500v-1000h-500zM71 750l179 -390l179 390h-358zM50 -76l172 376l-172 376v-752zM450 676l-172 -376l172 -376v752zM250 240l-179 -390h358z" />
    <glyph glyph-name=".notdef" horiz-adv-x="500" 
d="M0 -200v1000h500v-1000h-500zM71 750l179 -390l179 390h-358zM50 -76l172 376l-172 376v-752zM450 676l-172 -376l172 -376v752zM250 240l-179 -390h358z" />
    <glyph glyph-name=".null" horiz-adv-x="0" 
 />
    <glyph glyph-name="nonmarkingreturn" horiz-adv-x="333" 
 />
    <glyph glyph-name="space" unicode=" " horiz-adv-x="450" 
 />
    <glyph glyph-name="exclam" unicode="!" horiz-adv-x="443" 
d="M157 223l-20 478h169l-20 -478h-129zM308 0h-173v141h173v-141z" />
    <glyph glyph-name="quotedbl" unicode="&#x22;" horiz-adv-x="606" 
d="M189 367h-99l39 349h137zM429 367h-99l39 349h137z" />
    <glyph glyph-name="numbersign" unicode="#" horiz-adv-x="1201" 
d="M1091 277v-99h-258l-59 -178h-126l59 178h-327l-59 -178h-126l59 178h-184v99h216l49 146h-225v99h257l59 177h129l-60 -177h325l59 177h129l-60 -177h183v-99h-216l-49 -146h225zM462 423l-49 -146h326l49 146h-326z" />
    <glyph glyph-name="dollar" unicode="$" horiz-adv-x="1086" 
d="M450 -156h-137l53 183q-182 18 -276 56v127q73 -33 216.5 -56.5t261.5 -23.5q236 0 276 40q17 17 17 41q0 25 -15 40q-17 17 -72.5 24.5t-215.5 15.5q-201 9 -289.5 25t-125.5 53q-43 43 -43 106q0 77 49 126q44 44 137 63.5t251 19.5h20l45 154h137l-47 -160
q158 -13 252 -48v-127q-76 30 -185 49t-224 19q-239 0 -283 -44q-14 -14 -14 -36q0 -19 12 -31q18 -18 82 -26t234 -16q195 -8 274.5 -26.5t113.5 -52.5q42 -42 42 -107q0 -82 -47 -129q-41 -41 -122 -63.5t-259 -22.5q-45 0 -67 1z" />
    <glyph glyph-name="percent" unicode="%" horiz-adv-x="1656" 
d="M83 516q0 81 49 130q67 67 262 67q194 0 261 -67q49 -49 49 -130q0 -80 -49 -131q-70 -68 -261 -68q-194 0 -262 68q-49 49 -49 131zM577 516q0 38 -22 60q-36 36 -161 36q-127 0 -162 -35q-22 -22 -22 -61q0 -40 21 -61q37 -37 163 -37q125 0 161 36q22 22 22 62z
M1324 700l-835 -700h-152l835 700h152zM1573 181q0 -80 -49 -131q-70 -68 -261 -68q-194 0 -262 68q-49 49 -49 131q0 81 49 130q67 67 262 67q194 0 261 -67q49 -49 49 -130zM1079 181q0 -40 21 -61q37 -37 163 -37q125 0 161 36q22 22 22 62q0 38 -22 60q-36 36 -161 36
q-127 0 -162 -35q-22 -22 -22 -61z" />
    <glyph glyph-name="ampersand" unicode="&#x26;" horiz-adv-x="1423" 
d="M88 196q0 85 53 138q66 66 226 66q36 0 78 -5q-98 53 -98 143q0 67 42 109q35 35 105 52.5t198 17.5q154 0 288 -28v-131q-158 33 -287 33q-149 0 -179 -30q-12 -12 -12 -32q0 -19 13.5 -35.5t57.5 -39.5l328 -172q241 139 353 217v-160q-99 -63 -212 -130l396 -206v-3
h-253l-263 141q-157 -85 -279 -121t-250 -36q-181 0 -253 72q-52 52 -52 140zM410 116q181 0 372 100l-12 7q-79 43 -157.5 61t-183.5 18q-119 0 -154 -35q-22 -22 -22 -59q0 -38 22 -60q32 -32 135 -32z" />
    <glyph glyph-name="quotesingle" unicode="'" horiz-adv-x="366" 
d="M189 367h-99l39 349h137z" />
    <glyph glyph-name="parenleft" unicode="(" horiz-adv-x="615" 
d="M268 349q0 -130 74 -233t223 -207v-9h-168q-277 176 -277 449t277 449h168v-9q-149 -104 -223 -207t-74 -233z" />
    <glyph glyph-name="parenright" unicode=")" horiz-adv-x="615" 
d="M347 349q0 130 -74 233t-223 207v9h168q277 -176 277 -449t-277 -449h-168v9q149 104 223 207t74 233z" />
    <glyph glyph-name="asterisk" unicode="*" horiz-adv-x="876" 
d="M558 700h129l-157 -200l290 6v-91l-290 6l157 -201h-129l-120 173l-120 -173h-129l156 201l-289 -6v91l290 -6l-157 200h129l120 -172z" />
    <glyph glyph-name="plus" unicode="+" horiz-adv-x="1010" 
d="M567 40h-125v249h-325v119h325v249h125v-249h326v-119h-326v-249z" />
    <glyph glyph-name="comma" unicode="," horiz-adv-x="412" 
d="M97 -170h-148l248 331h175z" />
    <glyph glyph-name="hyphen" unicode="-" horiz-adv-x="783" 
d="M673 419v-131h-563v131h563z" />
    <glyph glyph-name="period" unicode="." horiz-adv-x="371" 
d="M270 0h-169v161h169v-161z" />
    <glyph glyph-name="slash" unicode="/" horiz-adv-x="837" 
d="M151 -99h-165l703 898h162z" />
    <glyph glyph-name="zero" unicode="0" horiz-adv-x="1249" 
d="M1166 350q0 -153 -92 -245q-125 -125 -449 -125t-450 126q-92 92 -92 244q0 153 92 245q125 125 450 125q324 0 449 -125q92 -92 92 -245zM1009 350q0 107 -60 167q-82 82 -324 82q-246 0 -326 -80q-59 -59 -59 -169q0 -106 60 -166q83 -83 325 -83q245 0 325 80
q59 59 59 169z" />
    <glyph glyph-name="one" unicode="1" horiz-adv-x="629" 
d="M55 438v147l239 117h185v-702h-155v569z" />
    <glyph glyph-name="two" unicode="2" horiz-adv-x="1113" 
d="M125 631q204 89 488 89q273 0 357 -84q50 -50 50 -135q0 -67 -44 -111q-38 -38 -110.5 -60.5t-277.5 -57.5q-127 -22 -198 -46t-104 -57q-21 -21 -29 -43h753v-126h-940q8 149 91 232q108 108 392 157q157 27 218.5 42.5t80.5 34.5q15 15 15 42q0 28 -16 44
q-46 46 -237 46q-258 0 -489 -101v134z" />
    <glyph glyph-name="three" unicode="3" horiz-adv-x="1110" 
d="M101 650q69 26 200.5 46t255.5 20q173 0 269.5 -21.5t139.5 -64.5q46 -46 46 -114q0 -63 -39 -102q-43 -43 -114 -58q80 -15 122 -57q41 -41 41 -102q0 -71 -45 -116q-53 -53 -151.5 -75t-268.5 -22q-125 0 -257 19.5t-201 46.5v127q77 -31 206.5 -51t251.5 -20
q131 0 197.5 9.5t91.5 34.5q19 19 19 50t-20 51q-23 23 -78 32.5t-166 9.5h-385v123h376q119 0 171.5 8t74.5 30q18 18 18 45q0 31 -17 48q-47 47 -282 47q-120 0 -250.5 -22t-205.5 -56v134z" />
    <glyph glyph-name="four" unicode="4" horiz-adv-x="1247" 
d="M710 700h240v-414h257v-118h-257v-168h-152v168h-756v56zM337 284h462v323z" />
    <glyph glyph-name="five" unicode="5" horiz-adv-x="1132" 
d="M266 574v-160q193 15 330 15q183 0 268 -18t126 -59q43 -43 43 -139q0 -79 -52 -131q-45 -45 -138.5 -71.5t-286.5 -26.5q-266 0 -436 54v134q73 -30 192.5 -48t242.5 -18q248 0 301 53q20 20 20 54q0 33 -20 53q-19 19 -76.5 28t-188.5 9q-231 0 -463 -16v413h876v-126
h-738z" />
    <glyph glyph-name="six" unicode="6" horiz-adv-x="1174" 
d="M587 -20q-176 0 -271 21.5t-149 75.5q-80 80 -80 263q0 166 90 256q124 124 441 124q256 0 413 -66v-137q-169 81 -413 81q-235 0 -317 -82q-53 -53 -57 -163q50 47 134.5 70t234.5 23q182 0 281 -19.5t146 -66.5t47 -140q0 -86 -52 -138q-50 -50 -147.5 -76t-300.5 -26z
M587 102q260 0 321 61q22 22 22 57q0 36 -21 57q-46 47 -302 47q-272 0 -328 -56q-21 -21 -21 -54q0 -35 21 -56q56 -56 308 -56z" />
    <glyph glyph-name="seven" unicode="7" horiz-adv-x="1103" 
d="M70 577v123h1013v-56l-679 -644h-194v2l610 575h-750z" />
    <glyph glyph-name="eight" unicode="8" horiz-adv-x="1162" 
d="M581 -20q-193 0 -296 23t-150 70q-46 46 -46 110q0 65 45 110t132 63q-77 16 -124 63q-43 43 -43 101q0 66 44 110q49 49 148 69.5t290 20.5t290 -20.5t148 -69.5q44 -44 44 -110q0 -58 -43 -101q-47 -47 -124 -63q87 -18 132 -63t45 -110q0 -64 -46 -110
q-47 -47 -150 -70t-296 -23zM255 505q0 -29 20 -49q45 -45 306 -45t306 45q20 20 20 49q0 30 -20 50q-47 47 -306 47t-306 -47q-20 -20 -20 -50zM245 197q0 -29 21 -50q46 -46 315 -46t315 46q21 21 21 50q0 31 -22 53q-46 46 -314 46t-314 -46q-22 -22 -22 -53z" />
    <glyph glyph-name="nine" unicode="9" horiz-adv-x="1174" 
d="M587 720q176 0 271 -21.5t149 -75.5q80 -80 80 -258q0 -171 -90 -261q-124 -124 -442 -124q-268 0 -432 66v137q178 -81 433 -81q235 0 317 82q52 52 56 163q-50 -47 -134.5 -70t-233.5 -23q-182 0 -281 19.5t-146 66.5t-47 142q0 84 52 136q50 50 147.5 76t300.5 26z
M587 598q-260 0 -321 -61q-22 -22 -22 -56q0 -37 21 -58q47 -47 302 -47q272 0 328 56q21 21 21 57q0 32 -21 53q-56 56 -308 56z" />
    <glyph glyph-name="colon" unicode=":" horiz-adv-x="371" 
d="M270 0h-169v161h169v-161zM270 389h-169v161h169v-161z" />
    <glyph glyph-name="semicolon" unicode=";" horiz-adv-x="477" 
d="M346 389h-169v161h169v-161zM93 -170h-148l248 331h175z" />
    <glyph glyph-name="less" unicode="&#x3c;" horiz-adv-x="848" 
d="M727 159v-135l-606 244v160l606 244v-135l-499 -188z" />
    <glyph glyph-name="equal" unicode="=" horiz-adv-x="1040" 
d="M903 554v-117h-766v117h766zM903 271v-117h-766v117h766z" />
    <glyph glyph-name="greater" unicode="&#x3e;" horiz-adv-x="848" 
d="M121 24v135l499 188l-499 190v135l606 -244v-160z" />
    <glyph glyph-name="question" unicode="?" horiz-adv-x="991" 
d="M359 216v195l150 4q227 7 260 40q16 16 16 46t-17 47q-24 24 -92.5 34t-231.5 10q-187 0 -394 -49v128q174 43 394 43q206 0 306.5 -23.5t144.5 -67.5q46 -46 46 -129q0 -71 -45 -116q-38 -38 -120.5 -56t-258.5 -25l-17 -1v-80h-141zM516 0h-173v141h173v-141z" />
    <glyph glyph-name="at" unicode="@" horiz-adv-x="1577" 
d="M795 716q420 0 574 -154q111 -111 111 -291q0 -138 -81 -219q-62 -62 -168 -62q-62 0 -107.5 24t-66.5 64q-92 -88 -338 -88q-203 0 -264 61q-39 39 -39 93q0 53 32 85q64 64 285 64h282v26q0 29 -11.5 43.5t-57 24.5t-136.5 10q-168 0 -319 -39v94q154 41 324 41
q181 0 250 -41t69 -135v-141q0 -43 24.5 -65.5t65.5 -22.5q58 0 96 38q44 44 44 143q0 139 -82 221q-129 129 -489 129q-184 0 -309.5 -35.5t-185.5 -95.5q-80 -80 -80 -221q0 -136 60 -267h-128q-53 127 -53 266q0 92 24.5 162t82.5 128q160 160 591 160zM558 175
q-12 -12 -12 -29q0 -19 12 -31q32 -32 167 -32q106 0 189 23t101 76v26h-283q-141 0 -174 -33z" />
    <glyph glyph-name="A" unicode="A" horiz-adv-x="1228" 
d="M509 704h210l487 -704h-178l-112 165h-611l-112 -165h-171zM610 616l-221 -327h443z" />
    <glyph glyph-name="B" unicode="B" horiz-adv-x="1197" 
d="M132 0v700h622q136 0 200.5 -16.5t101.5 -53.5q42 -42 42 -114q0 -67 -39.5 -105.5t-118.5 -54.5q83 -16 125.5 -54t42.5 -106q0 -76 -44 -120q-37 -37 -107.5 -56.5t-209.5 -19.5h-615zM931 257q-18 18 -59 27.5t-139 9.5h-448v-174h469q144 0 174 30q21 21 21 56
q0 33 -18 51zM921 545q-17 17 -55 24t-122 7h-459v-162h448q95 0 133.5 8t55.5 25t17 49q0 31 -18 49z" />
    <glyph glyph-name="C" unicode="C" horiz-adv-x="1158" 
d="M624 -16q-322 0 -446 124q-91 91 -91 242t91 242q124 124 446 124q270 0 429 -88v-144q-80 47 -193 77t-235 30q-245 0 -326 -81q-56 -56 -56 -160q0 -101 57 -158q83 -83 324 -83q123 0 236.5 28t192.5 72v-137q-159 -88 -429 -88z" />
    <glyph glyph-name="D" unicode="D" horiz-adv-x="1226" 
d="M1139 350q0 -149 -90 -239q-111 -111 -405 -111h-512v700h512q294 0 405 -111q90 -90 90 -239zM287 126h354q219 0 288 69q54 54 54 155t-54 155q-69 69 -288 69h-354v-448z" />
    <glyph glyph-name="E" unicode="E" horiz-adv-x="1144" 
d="M286 416h741v-124h-741v-166h755v-126h-909v700h909v-126h-755v-158z" />
    <glyph glyph-name="F" unicode="F" horiz-adv-x="1101" 
d="M287 401h719v-124h-719v-277h-155v700h888v-126h-733v-173z" />
    <glyph glyph-name="G" unicode="G" horiz-adv-x="1237" 
d="M563 388h589v-80q0 -137 -75 -212q-112 -112 -435 -112q-195 0 -300.5 33.5t-163.5 91.5q-91 91 -91 241q0 151 91 242q124 124 464 124q151 0 271.5 -22.5t189.5 -57.5v-142q-80 43 -201 70t-260 27q-262 0 -343 -81q-56 -56 -56 -160q0 -105 56 -161q84 -84 343 -84
q121 0 201.5 19t112.5 51q37 37 37 89h-430v124z" />
    <glyph glyph-name="H" unicode="H" horiz-adv-x="1274" 
d="M287 418h700v282h155v-700h-155v290h-700v-290h-155v700h155v-282z" />
    <glyph glyph-name="I" unicode="I" horiz-adv-x="435" 
d="M295 0h-155v700h155v-700z" />
    <glyph glyph-name="J" unicode="J" horiz-adv-x="916" 
d="M651 700h155v-375q0 -87 -17 -143t-61 -100q-91 -91 -299 -91q-197 0 -362 73v137q175 -85 363 -85q123 0 176 53q45 45 45 152v379z" />
    <glyph glyph-name="K" unicode="K" horiz-adv-x="1126" 
d="M132 700h155v-283h147l435 283h229v-3l-540 -343l548 -351v-3h-241l-443 291h-135v-291h-155v700z" />
    <glyph glyph-name="L" unicode="L" horiz-adv-x="1048" 
d="M287 128h704v-128h-859v700h155v-572z" />
    <glyph glyph-name="M" unicode="M" horiz-adv-x="1595" 
d="M1463 700v-700h-155v586l-406 -586h-210l-406 586v-586h-154v700h253l415 -604l416 604h247z" />
    <glyph glyph-name="N" unicode="N" horiz-adv-x="1275" 
d="M360 700l629 -565v565h154v-700h-217l-640 575v-575h-154v700h228z" />
    <glyph glyph-name="O" unicode="O" 
d="M638 720q335 0 460 -125q91 -91 91 -245t-91 -245q-125 -125 -460 -125t-459 124q-92 92 -92 246t91 245q125 125 460 125zM638 598q-252 0 -336 -84q-59 -59 -59 -164q0 -102 61 -163q85 -85 334 -85q252 0 337 85q58 58 58 163q0 102 -60 162q-86 86 -335 86z" />
    <glyph glyph-name="P" unicode="P" horiz-adv-x="1129" 
d="M702 222h-415v-222h-155v700h573q138 0 203.5 -19t105.5 -59q55 -55 55 -159q0 -103 -57 -160q-40 -40 -107.5 -60.5t-202.5 -20.5zM287 347h426q138 0 174 36q28 28 28 78t-28 78q-36 36 -174 36h-426v-228z" />
    <glyph glyph-name="Q" unicode="Q" horiz-adv-x="1284" 
d="M638 720q335 0 460 -125q91 -91 91 -243q0 -110 -52 -190l81 -38v-135l-171 83q-134 -88 -409 -88q-335 0 -459 124q-92 92 -92 244t91 243q125 125 460 125zM638 598q-252 0 -336 -84q-59 -59 -59 -162q0 -100 61 -161q85 -85 334 -85q167 0 262 36l-221 106v140
l327 -162q27 48 27 126q0 100 -60 160q-86 86 -335 86z" />
    <glyph glyph-name="R" unicode="R" horiz-adv-x="1196" 
d="M132 700h586q138 0 202.5 -18.5t105.5 -59.5q53 -53 53 -154q0 -98 -57 -155q-68 -68 -230 -79l376 -231v-3h-234l-370 232h-277v-232h-155v700zM287 574v-220h433q141 0 180 39q25 25 25 71q0 47 -27 74q-19 19 -57.5 27.5t-119.5 8.5h-434z" />
    <glyph glyph-name="S" unicode="S" horiz-adv-x="1143" 
d="M592 105q139 0 201.5 10.5t85.5 33.5q19 19 19 49q0 32 -17 49t-74.5 26t-235.5 18q-202 10 -288.5 29t-123.5 56q-40 40 -40 117q0 88 49 137q40 40 129 61.5t262 21.5q272 0 435 -65v-131q-81 34 -201.5 56t-233.5 22q-228 0 -269 -41q-17 -17 -17 -47q0 -28 15 -43
q17 -17 75.5 -26.5t220.5 -17.5q214 -11 301 -29.5t124 -55.5q43 -43 43 -121q0 -89 -49 -138q-42 -42 -135.5 -65.5t-275.5 -23.5q-145 0 -277.5 21t-214.5 57v131q78 -38 222.5 -64.5t269.5 -26.5z" />
    <glyph glyph-name="T" unicode="T" horiz-adv-x="1159" 
d="M1104 700v-126h-447v-574h-155v574h-447v126h1049z" />
    <glyph glyph-name="U" unicode="U" horiz-adv-x="1220" 
d="M610 109q224 0 296 72q49 49 49 142v377h155v-392q0 -131 -82 -213q-111 -111 -418 -111t-418 111q-82 82 -82 213v392h155v-377q0 -93 49 -142q72 -72 296 -72z" />
    <glyph glyph-name="V" unicode="V" horiz-adv-x="1204" 
d="M1179 700l-477 -704h-200l-477 704h180l400 -604l401 604h173z" />
    <glyph glyph-name="W" unicode="W" horiz-adv-x="1796" 
d="M1600 700h165l-383 -704h-206l-278 554l-278 -554h-206l-383 704h172l318 -604l304 600h153l304 -600z" />
    <glyph glyph-name="X" unicode="X" horiz-adv-x="1194" 
d="M45 0v3l432 349l-424 345v3h219l327 -275l331 275h211v-3l-425 -343l433 -351v-3h-219l-335 281l-339 -281h-211z" />
    <glyph glyph-name="Y" unicode="Y" horiz-adv-x="1128" 
d="M567 394l349 306h202v-3l-477 -413v-284h-155v282l-476 415v3h208z" />
    <glyph glyph-name="Z" unicode="Z" horiz-adv-x="1125" 
d="M96 574v126h965v-56l-708 -518h696v-126h-989v56l708 518h-672z" />
    <glyph glyph-name="bracketleft" unicode="[" horiz-adv-x="694" 
d="M175 -100v897h449v-116h-315v-665h315v-116h-449z" />
    <glyph glyph-name="backslash" unicode="\" horiz-adv-x="840" 
d="M854 -98h-165l-703 897h168z" />
    <glyph glyph-name="bracketright" unicode="]" horiz-adv-x="694" 
d="M519 797v-897h-449v116h315v665h-315v116h449z" />
    <glyph glyph-name="asciicircum" unicode="^" horiz-adv-x="815" 
d="M76 262l238 438h186l239 -438h-157l-175 342l-174 -342h-157z" />
    <glyph glyph-name="underscore" unicode="_" horiz-adv-x="1172" 
d="M1177 -48v-124h-1182v124h1182z" />
    <glyph glyph-name="grave" unicode="`" horiz-adv-x="618" 
d="M538 780v-5h-156l-342 152v5h252z" />
    <glyph glyph-name="a" unicode="a" horiz-adv-x="1228" 
d="M509 704h210l487 -704h-178l-112 165h-611l-112 -165h-171zM610 616l-221 -327h443z" />
    <glyph glyph-name="b" unicode="b" horiz-adv-x="1197" 
d="M132 0v700h622q136 0 200.5 -16.5t101.5 -53.5q42 -42 42 -114q0 -67 -39.5 -105.5t-118.5 -54.5q83 -16 125.5 -54t42.5 -106q0 -76 -44 -120q-37 -37 -107.5 -56.5t-209.5 -19.5h-615zM931 257q-18 18 -59 27.5t-139 9.5h-448v-174h469q144 0 174 30q21 21 21 56
q0 33 -18 51zM921 545q-17 17 -55 24t-122 7h-459v-162h448q95 0 133.5 8t55.5 25t17 49q0 31 -18 49z" />
    <glyph glyph-name="c" unicode="c" horiz-adv-x="1158" 
d="M624 -16q-322 0 -446 124q-91 91 -91 242t91 242q124 124 446 124q270 0 429 -88v-144q-80 47 -193 77t-235 30q-245 0 -326 -81q-56 -56 -56 -160q0 -101 57 -158q83 -83 324 -83q123 0 236.5 28t192.5 72v-137q-159 -88 -429 -88z" />
    <glyph glyph-name="d" unicode="d" horiz-adv-x="1226" 
d="M1139 350q0 -149 -90 -239q-111 -111 -405 -111h-512v700h512q294 0 405 -111q90 -90 90 -239zM287 126h354q219 0 288 69q54 54 54 155t-54 155q-69 69 -288 69h-354v-448z" />
    <glyph glyph-name="e" unicode="e" horiz-adv-x="1144" 
d="M286 416h741v-124h-741v-166h755v-126h-909v700h909v-126h-755v-158z" />
    <glyph glyph-name="f" unicode="f" horiz-adv-x="1101" 
d="M287 401h719v-124h-719v-277h-155v700h888v-126h-733v-173z" />
    <glyph glyph-name="g" unicode="g" horiz-adv-x="1237" 
d="M563 388h589v-80q0 -137 -75 -212q-112 -112 -435 -112q-195 0 -300.5 33.5t-163.5 91.5q-91 91 -91 241q0 151 91 242q124 124 464 124q151 0 271.5 -22.5t189.5 -57.5v-142q-80 43 -201 70t-260 27q-262 0 -343 -81q-56 -56 -56 -160q0 -105 56 -161q84 -84 343 -84
q121 0 201.5 19t112.5 51q37 37 37 89h-430v124z" />
    <glyph glyph-name="h" unicode="h" horiz-adv-x="1274" 
d="M287 418h700v282h155v-700h-155v290h-700v-290h-155v700h155v-282z" />
    <glyph glyph-name="i" unicode="i" horiz-adv-x="435" 
d="M295 0h-155v700h155v-700z" />
    <glyph glyph-name="j" unicode="j" horiz-adv-x="916" 
d="M651 700h155v-375q0 -87 -17 -143t-61 -100q-91 -91 -299 -91q-197 0 -362 73v137q175 -85 363 -85q123 0 176 53q45 45 45 152v379z" />
    <glyph glyph-name="k" unicode="k" horiz-adv-x="1126" 
d="M132 700h155v-283h147l435 283h229v-3l-540 -343l548 -351v-3h-241l-443 291h-135v-291h-155v700z" />
    <glyph glyph-name="l" unicode="l" horiz-adv-x="1048" 
d="M287 128h704v-128h-859v700h155v-572z" />
    <glyph glyph-name="m" unicode="m" horiz-adv-x="1595" 
d="M1463 700v-700h-155v586l-406 -586h-210l-406 586v-586h-154v700h253l415 -604l416 604h247z" />
    <glyph glyph-name="n" unicode="n" horiz-adv-x="1275" 
d="M360 700l629 -565v565h154v-700h-217l-640 575v-575h-154v700h228z" />
    <glyph glyph-name="o" unicode="o" 
d="M638 720q335 0 460 -125q91 -91 91 -245t-91 -245q-125 -125 -460 -125t-459 124q-92 92 -92 246t91 245q125 125 460 125zM638 598q-252 0 -336 -84q-59 -59 -59 -164q0 -102 61 -163q85 -85 334 -85q252 0 337 85q58 58 58 163q0 102 -60 162q-86 86 -335 86z" />
    <glyph glyph-name="p" unicode="p" horiz-adv-x="1129" 
d="M702 222h-415v-222h-155v700h573q138 0 203.5 -19t105.5 -59q55 -55 55 -159q0 -103 -57 -160q-40 -40 -107.5 -60.5t-202.5 -20.5zM287 347h426q138 0 174 36q28 28 28 78t-28 78q-36 36 -174 36h-426v-228z" />
    <glyph glyph-name="q" unicode="q" horiz-adv-x="1284" 
d="M638 720q335 0 460 -125q91 -91 91 -243q0 -110 -52 -190l81 -38v-135l-171 83q-134 -88 -409 -88q-335 0 -459 124q-92 92 -92 244t91 243q125 125 460 125zM638 598q-252 0 -336 -84q-59 -59 -59 -162q0 -100 61 -161q85 -85 334 -85q167 0 262 36l-221 106v140
l327 -162q27 48 27 126q0 100 -60 160q-86 86 -335 86z" />
    <glyph glyph-name="r" unicode="r" horiz-adv-x="1196" 
d="M132 700h586q138 0 202.5 -18.5t105.5 -59.5q53 -53 53 -154q0 -98 -57 -155q-68 -68 -230 -79l376 -231v-3h-234l-370 232h-277v-232h-155v700zM287 574v-220h433q141 0 180 39q25 25 25 71q0 47 -27 74q-19 19 -57.5 27.5t-119.5 8.5h-434z" />
    <glyph glyph-name="s" unicode="s" horiz-adv-x="1143" 
d="M592 105q139 0 201.5 10.5t85.5 33.5q19 19 19 49q0 32 -17 49t-74.5 26t-235.5 18q-202 10 -288.5 29t-123.5 56q-40 40 -40 117q0 88 49 137q40 40 129 61.5t262 21.5q272 0 435 -65v-131q-81 34 -201.5 56t-233.5 22q-228 0 -269 -41q-17 -17 -17 -47q0 -28 15 -43
q17 -17 75.5 -26.5t220.5 -17.5q214 -11 301 -29.5t124 -55.5q43 -43 43 -121q0 -89 -49 -138q-42 -42 -135.5 -65.5t-275.5 -23.5q-145 0 -277.5 21t-214.5 57v131q78 -38 222.5 -64.5t269.5 -26.5z" />
    <glyph glyph-name="t" unicode="t" horiz-adv-x="1159" 
d="M1104 700v-126h-447v-574h-155v574h-447v126h1049z" />
    <glyph glyph-name="u" unicode="u" horiz-adv-x="1220" 
d="M610 109q224 0 296 72q49 49 49 142v377h155v-392q0 -131 -82 -213q-111 -111 -418 -111t-418 111q-82 82 -82 213v392h155v-377q0 -93 49 -142q72 -72 296 -72z" />
    <glyph glyph-name="v" unicode="v" horiz-adv-x="1204" 
d="M1179 700l-477 -704h-200l-477 704h180l400 -604l401 604h173z" />
    <glyph glyph-name="w" unicode="w" horiz-adv-x="1796" 
d="M1600 700h165l-383 -704h-206l-278 554l-278 -554h-206l-383 704h172l318 -604l304 600h153l304 -600z" />
    <glyph glyph-name="x" unicode="x" horiz-adv-x="1194" 
d="M45 0v3l432 349l-424 345v3h219l327 -275l331 275h211v-3l-425 -343l433 -351v-3h-219l-335 281l-339 -281h-211z" />
    <glyph glyph-name="y" unicode="y" horiz-adv-x="1128" 
d="M567 394l349 306h202v-3l-477 -413v-284h-155v282l-476 415v3h208z" />
    <glyph glyph-name="z" unicode="z" horiz-adv-x="1125" 
d="M96 574v126h965v-56l-708 -518h696v-126h-989v56l708 518h-672z" />
    <glyph glyph-name="braceleft" unicode="{" horiz-adv-x="864" 
d="M261 348q110 -15 148.5 -53t38.5 -118v-47q0 -68 22 -90q33 -33 156 -33q89 0 188 12v-119q-86 -12 -182 -12q-114 0 -178.5 15t-98.5 49q-41 41 -41 127v95q0 58 -29 82.5t-106 32.5l-129 13v93l129 13q77 8 106 32.5t29 82.5v95q0 86 41 127q34 34 98.5 49t178.5 15
q96 0 182 -12v-119q-99 12 -188 12q-123 0 -156 -33q-22 -22 -22 -90v-47q0 -81 -38.5 -118.5t-148.5 -53.5z" />
    <glyph glyph-name="bar" unicode="|" horiz-adv-x="641" 
d="M391 -126h-141v953h141v-953z" />
    <glyph glyph-name="braceright" unicode="}" horiz-adv-x="864" 
d="M603 348q-110 16 -148.5 53.5t-38.5 118.5v47q0 68 -22 90q-33 33 -156 33q-89 0 -188 -12v119q86 12 182 12q114 0 178.5 -15t98.5 -49q41 -41 41 -127v-95q0 -58 29 -82.5t106 -32.5l129 -13v-93l-129 -13q-77 -8 -106 -32.5t-29 -82.5v-95q0 -86 -41 -127
q-34 -34 -98.5 -49t-178.5 -15q-96 0 -182 12v119q99 -12 188 -12q123 0 156 33q22 22 22 90v47q0 80 38.5 118t148.5 53z" />
    <glyph glyph-name="asciitilde" unicode="~" horiz-adv-x="855" 
d="M104 417q74 75 173 75q48 0 117 -22l84 -29q56 -18 100 -18q42 0 79 15.5t89 65.5h5v-143q-74 -74 -173 -74q-52 0 -115 22l-85 28q-56 18 -101 18q-42 0 -79 -15t-89 -65h-5v142z" />
    <glyph glyph-name="uni00A0" unicode="&#xa0;" horiz-adv-x="450" 
 />
    <glyph glyph-name="exclamdown" unicode="&#xa1;" horiz-adv-x="443" 
d="M286 478l20 -478h-169l20 478h129zM135 701h173v-141h-173v141z" />
    <glyph glyph-name="cent" unicode="&#xa2;" horiz-adv-x="921" 
d="M438 -52h-129l44 150q-127 20 -186 79q-66 66 -66 172q0 107 68 175q85 85 321 85h6l42 142h129l-44 -150q112 -12 176 -37l1 -131q-137 57 -315 57q-165 0 -215 -50q-35 -35 -35 -91t34 -90q50 -50 216 -50q202 0 315 50l-1 -125q-110 -45 -309 -45h-11z" />
    <glyph glyph-name="sterling" unicode="&#xa3;" horiz-adv-x="1206" 
d="M81 396h181v20q0 75 14 120.5t49 80.5q53 53 141 76t247 23q192 0 372 -51v-133q-197 59 -374 59q-113 0 -170.5 -13.5t-87.5 -43.5q-36 -36 -36 -115v-23h581v-112h-581v-160h697v-124h-1033v56l181 66v162h-181v112z" />
    <glyph glyph-name="yen" unicode="&#xa5;" horiz-adv-x="1222" 
d="M131 273v76h365l-460 348v3h204l375 -286l373 286h198v-3l-462 -348h368v-76h-404v-74h403v-76h-403v-123h-153v123h-405v76h405v74h-404z" />
    <glyph glyph-name="section" unicode="&#xa7;" horiz-adv-x="1318" 
d="M45 182q136 -38 251 -56l95 334q31 111 84 164q54 54 128.5 73t185.5 19q237 0 484 -70v-129q-125 35 -252 56l-94 -334q-31 -111 -84 -164q-54 -54 -128.5 -73t-185.5 -19q-237 0 -484 70v129zM530 419l-92 -310q46 -3 91 -3q75 0 121.5 13t79.5 45q35 35 58 116l92 309
q-62 4 -91 4q-75 0 -121.5 -13t-79.5 -45q-35 -35 -58 -116z" />
    <glyph glyph-name="dieresis" unicode="&#xa8;" horiz-adv-x="628" 
d="M239 887v-113h-179v113h179zM568 887v-113h-179v113h179z" />
    <glyph glyph-name="copyright" unicode="&#xa9;" horiz-adv-x="1398" 
d="M699 -93q-367 0 -510 143q-101 101 -101 299t101 299q143 143 510 143t510 -143q101 -101 101 -299t-101 -299q-143 -143 -510 -143zM699 -29q332 0 453 121q82 82 82 257t-82 257q-121 121 -453 121t-453 -121q-82 -82 -82 -257t82 -257q121 -121 453 -121zM376 352
q0 94 56 150q71 71 279 71q147 0 278 -41v-107q-136 46 -281 46q-146 0 -187 -42q-28 -28 -28 -77q0 -52 26 -79q21 -21 64 -30t126 -9q155 0 280 41v-103q-125 -41 -283 -41q-205 0 -275 70q-55 55 -55 151z" />
    <glyph glyph-name="ordfeminine" unicode="&#xaa;" horiz-adv-x="940" 
d="M389 706h162l316 -471h-141l-60 92h-395l-60 -92h-138zM60 0v100h820v-100h-820zM468 629l-131 -200h262z" />
    <glyph glyph-name="guillemotleft" unicode="&#xab;" horiz-adv-x="915" 
d="M221 358l255 -203h-170l-236 179v48l252 180h171zM578 358l255 -203h-170l-236 179v48l252 180h171z" />
    <glyph glyph-name="registered" unicode="&#xae;" horiz-adv-x="792" 
d="M737 491q0 -112 -59 -171q-84 -84 -282 -84t-282 84q-59 59 -59 169q0 112 59 171q84 84 282 84t282 -84q59 -59 59 -169zM101 490q0 -95 48 -143q67 -67 247 -67t247 67q48 48 48 143t-48 143q-67 67 -247 67t-247 -67q-48 -48 -48 -143zM562 525q0 -37 -19 -56
q-20 -20 -62 -26l100 -67v-2h-95l-94 64h-88v-64h-70v236h188q54 0 79 -7t42 -24q19 -19 19 -54zM492 522q0 12 -8 20q-11 11 -63 11h-117v-62h117q52 0 63 11q8 8 8 20z" />
    <glyph glyph-name="macron" unicode="&#xaf;" horiz-adv-x="830" 
d="M740 792h-650v97h650v-97z" />
    <glyph glyph-name="degree" unicode="&#xb0;" horiz-adv-x="792" 
d="M61 500q0 90 54 144q77 77 281 77t281 -77q54 -54 54 -144t-54 -144q-77 -77 -281 -77t-281 77q-54 54 -54 144zM608 500q0 53 -33 86q-40 40 -179 40t-179 -40q-33 -33 -33 -86t33 -86q40 -40 179 -40t179 40q33 33 33 86z" />
    <glyph glyph-name="plusminus" unicode="&#xb1;" horiz-adv-x="985" 
d="M139 519h296v196h115v-196h296v-109h-296v-212h-115v212h-296v109zM144 94h697v-110h-697v110z" />
    <glyph glyph-name="acute" unicode="&#xb4;" horiz-adv-x="618" 
d="M80 775v5l246 152h252v-5l-342 -152h-156z" />
    <glyph glyph-name="paragraph" unicode="&#xb6;" horiz-adv-x="1222" 
d="M1112 0h-138v578h-222v-578h-170q-179 0 -268.5 30t-140.5 81q-86 86 -86 239q0 150 90 240q52 52 138 81t267 29h530v-700z" />
    <glyph glyph-name="periodcentered" unicode="&#xb7;" horiz-adv-x="371" 
d="M270 283h-169v161h169v-161z" />
    <glyph glyph-name="cedilla" unicode="&#xb8;" horiz-adv-x="588" 
d="M296 40h130l-239 -226h-207z" />
    <glyph glyph-name="ordmasculine" unicode="&#xba;" horiz-adv-x="992" 
d="M126 0v100h740v-100h-740zM882 466q0 -96 -63 -159q-42 -42 -115.5 -64.5t-207.5 -22.5t-207.5 22.5t-115.5 64.5q-63 63 -63 159t63 159q42 42 115.5 64.5t207.5 22.5t207.5 -22.5t115.5 -64.5q63 -63 63 -159zM753 466q0 54 -31 85q-51 53 -226 53t-226 -53
q-31 -31 -31 -85t31 -85q51 -53 226 -53t226 53q31 31 31 85z" />
    <glyph glyph-name="guillemotright" unicode="&#xbb;" horiz-adv-x="915" 
d="M342 359l-255 203h170l236 -179v-48l-252 -180h-171zM699 359l-255 203h170l236 -179v-48l-252 -180h-171z" />
    <glyph glyph-name="questiondown" unicode="&#xbf;" horiz-adv-x="991" 
d="M632 484v-195l-150 -4q-227 -7 -260 -40q-16 -16 -16 -46t17 -47q24 -24 92.5 -34t231.5 -10q187 0 394 49v-128q-174 -43 -394 -43q-206 0 -306.5 23.5t-144.5 67.5q-46 46 -46 129q0 71 45 116q38 38 120.5 56t258.5 25l17 1v80h141zM475 700h173v-141h-173v141z" />
    <glyph glyph-name="Agrave" unicode="&#xc0;" horiz-adv-x="1228" 
d="M509 704h210l487 -704h-178l-112 165h-611l-112 -165h-171zM610 616l-221 -327h443zM703 790v-5h-156l-342 152v5h252z" />
    <glyph glyph-name="Aacute" unicode="&#xc1;" horiz-adv-x="1228" 
d="M509 704h210l487 -704h-178l-112 165h-611l-112 -165h-171zM610 616l-221 -327h443zM525 785v5l246 152h252v-5l-342 -152h-156z" />
    <glyph glyph-name="Acircumflex" unicode="&#xc2;" horiz-adv-x="1228" 
d="M719 704l487 -704h-178l-112 165h-611l-112 -165h-171l487 704h210zM610 616l-221 -327h443zM315 779v4l202 163h194l202 -163v-4h-141l-159 102l-159 -102h-139z" />
    <glyph glyph-name="Atilde" unicode="&#xc3;" horiz-adv-x="1228" 
d="M719 704l487 -704h-178l-112 165h-611l-112 -165h-171l487 704h210zM610 616l-221 -327h443zM328 881q65 66 153 66q44 0 103 -20l75 -25q48 -16 88 -16q37 0 70 13.5t79 57.5h4v-110q-65 -66 -153 -66q-43 0 -102 20l-75 25q-48 16 -89 16q-37 0 -70 -13.5t-79 -57.5h-4
v110z" />
    <glyph glyph-name="Adieresis" unicode="&#xc4;" horiz-adv-x="1228" 
d="M509 704h210l487 -704h-178l-112 165h-611l-112 -165h-171zM610 616l-221 -327h443zM539 897v-113h-179v113h179zM868 897v-113h-179v113h179z" />
    <glyph glyph-name="Aring" unicode="&#xc5;" horiz-adv-x="1228" 
d="M610 907q157 0 212 -55q35 -35 35 -93t-35 -93q-23 -23 -55 -35l439 -631h-180l-112 165h-608l-111 -165h-173l437 629q-35 11 -61 37q-35 35 -35 93t35 93q55 55 212 55zM610 615l-220 -326h441zM610 682q112 0 142 30q18 18 18 47t-18 47q-30 30 -142 30t-142 -30
q-18 -18 -18 -47t18 -47q30 -30 142 -30z" />
    <glyph glyph-name="AE" unicode="&#xc6;" horiz-adv-x="1775" 
d="M986 416h677v-124h-677v-166h691v-126h-836v168h-474l-175 -168h-192l738 700h939v-126h-691v-158zM497 292h344v329z" />
    <glyph glyph-name="Ccedilla" unicode="&#xc7;" horiz-adv-x="1158" 
d="M1053 72q-133 -74 -374 -83l-185 -175h-207l247 177q-256 15 -356 117q-91 91 -91 242t91 242q124 124 446 124q270 0 429 -88v-144q-80 47 -193 77t-235 30q-245 0 -326 -81q-56 -56 -56 -160q0 -101 57 -158q83 -83 324 -83q123 0 236.5 28t192.5 72v-137z" />
    <glyph glyph-name="Egrave" unicode="&#xc8;" horiz-adv-x="1144" 
d="M286 416h741v-124h-741v-166h755v-126h-909v700h909v-126h-755v-158zM742 780v-5h-156l-342 152v5h252z" />
    <glyph glyph-name="Eacute" unicode="&#xc9;" horiz-adv-x="1144" 
d="M286 416h741v-124h-741v-166h755v-126h-909v700h909v-126h-755v-158zM454 775v5l246 152h252v-5l-342 -152h-156z" />
    <glyph glyph-name="Ecircumflex" unicode="&#xca;" horiz-adv-x="1144" 
d="M286 416h741v-124h-741v-166h755v-126h-909v700h909v-126h-755v-158zM299 784v4l202 163h194l202 -163v-4h-141l-159 102l-159 -102h-139z" />
    <glyph glyph-name="Edieresis" unicode="&#xcb;" horiz-adv-x="1144" 
d="M286 416h741v-124h-741v-166h755v-126h-909v700h909v-126h-755v-158zM523 887v-113h-179v113h179zM852 887v-113h-179v113h179z" />
    <glyph glyph-name="Igrave" unicode="&#xcc;" horiz-adv-x="435" 
d="M295 0h-155v700h155v-700zM296 780v-5h-156l-342 152v5h252z" />
    <glyph glyph-name="Iacute" unicode="&#xcd;" horiz-adv-x="435" 
d="M295 0h-155v700h155v-700zM138 775v5l246 152h252v-5l-342 -152h-156z" />
    <glyph glyph-name="Icircumflex" unicode="&#xce;" horiz-adv-x="435" 
d="M295 0h-155v700h155v-700zM-82 769v4l202 163h194l202 -163v-4h-141l-159 102l-159 -102h-139z" />
    <glyph glyph-name="Idieresis" unicode="&#xcf;" horiz-adv-x="435" 
d="M295 0h-155v700h155v-700zM142 887v-113h-179v113h179zM471 887v-113h-179v113h179z" />
    <glyph glyph-name="Eth" unicode="&#xd0;" horiz-adv-x="1324" 
d="M230 0v300h-169v104h169v296h512q294 0 405 -111q90 -90 90 -239t-90 -239q-111 -111 -405 -111h-512zM828 404v-104h-446v-174h354q220 0 289 69q54 54 54 155t-54 155q-69 69 -289 69h-354v-170h446z" />
    <glyph glyph-name="Ntilde" unicode="&#xd1;" horiz-adv-x="1275" 
d="M360 700l629 -565v565h154v-700h-217l-640 575v-575h-154v700h228zM388 846q65 66 153 66q44 0 103 -20l75 -25q48 -16 88 -16q37 0 70 13.5t79 57.5h4v-110q-65 -66 -153 -66q-43 0 -102 20l-75 25q-48 16 -89 16q-37 0 -70 -13.5t-79 -57.5h-4v110z" />
    <glyph glyph-name="Ograve" unicode="&#xd2;" 
d="M638 720q335 0 460 -125q91 -91 91 -245t-91 -245q-125 -125 -460 -125t-459 124q-92 92 -92 246t91 245q125 125 460 125zM638 598q-252 0 -336 -84q-59 -59 -59 -164q0 -102 61 -163q85 -85 334 -85q252 0 337 85q58 58 58 163q0 102 -60 162q-86 86 -335 86zM782 790
v-5h-156l-342 152v5h252z" />
    <glyph glyph-name="Oacute" unicode="&#xd3;" 
d="M638 720q335 0 460 -125q91 -91 91 -245t-91 -245q-125 -125 -460 -125t-459 124q-92 92 -92 246t91 245q125 125 460 125zM638 598q-252 0 -336 -84q-59 -59 -59 -164q0 -102 61 -163q85 -85 334 -85q252 0 337 85q58 58 58 163q0 102 -60 162q-86 86 -335 86zM494 785
v5l246 152h252v-5l-342 -152h-156z" />
    <glyph glyph-name="Ocircumflex" unicode="&#xd4;" 
d="M638 720q335 0 460 -125q91 -91 91 -245t-91 -245q-125 -125 -460 -125t-459 124q-92 92 -92 246t91 245q125 125 460 125zM638 598q-252 0 -336 -84q-59 -59 -59 -164q0 -102 61 -163q85 -85 334 -85q252 0 337 85q58 58 58 163q0 102 -60 162q-86 86 -335 86zM339 794
v4l202 163h194l202 -163v-4h-141l-159 102l-159 -102h-139z" />
    <glyph glyph-name="Otilde" unicode="&#xd5;" 
d="M638 720q335 0 460 -125q91 -91 91 -245t-91 -245q-125 -125 -460 -125t-459 124q-92 92 -92 246t91 245q125 125 460 125zM638 598q-252 0 -336 -84q-59 -59 -59 -164q0 -102 61 -163q85 -85 334 -85q252 0 337 85q58 58 58 163q0 102 -60 162q-86 86 -335 86zM352 881
q65 66 153 66q44 0 103 -20l75 -25q48 -16 88 -16q37 0 70 13.5t79 57.5h4v-110q-65 -66 -153 -66q-43 0 -102 20l-75 25q-48 16 -89 16q-37 0 -70 -13.5t-79 -57.5h-4v110z" />
    <glyph glyph-name="Odieresis" unicode="&#xd6;" 
d="M638 720q335 0 460 -125q91 -91 91 -245t-91 -245q-125 -125 -460 -125t-459 124q-92 92 -92 246t91 245q125 125 460 125zM638 598q-252 0 -336 -84q-59 -59 -59 -164q0 -102 61 -163q85 -85 334 -85q252 0 337 85q58 58 58 163q0 102 -60 162q-86 86 -335 86zM563 897
v-113h-179v113h179zM892 897v-113h-179v113h179z" />
    <glyph glyph-name="multiply" unicode="&#xd7;" horiz-adv-x="948" 
d="M194 86l-76 93l255 190l-255 191l76 93l279 -209l279 209l76 -93l-255 -191l255 -190l-76 -93l-279 208z" />
    <glyph glyph-name="Oslash" unicode="&#xd8;" 
d="M87 350q0 154 91 245q125 125 460 125t460 -125q91 -91 91 -245t-91 -245q-125 -125 -460 -125t-459 124q-92 92 -92 246zM243 350q0 -61 16 -99l680 287q-99 60 -301 60q-252 0 -336 -84q-59 -59 -59 -164zM1033 350q0 58 -17 98l-679 -287q97 -59 301 -59q252 0 337 85
q58 58 58 163z" />
    <glyph glyph-name="Ugrave" unicode="&#xd9;" horiz-adv-x="1220" 
d="M610 109q224 0 296 72q49 49 49 142v377h155v-392q0 -131 -82 -213q-111 -111 -418 -111t-418 111q-82 82 -82 213v392h155v-377q0 -93 49 -142q72 -72 296 -72zM774 750v-5h-156l-342 152v5h252z" />
    <glyph glyph-name="Uacute" unicode="&#xda;" horiz-adv-x="1220" 
d="M610 109q224 0 296 72q49 49 49 142v377h155v-392q0 -131 -82 -213q-111 -111 -418 -111t-418 111q-82 82 -82 213v392h155v-377q0 -93 49 -142q72 -72 296 -72zM446 745v5l246 152h252v-5l-342 -152h-156z" />
    <glyph glyph-name="Ucircumflex" unicode="&#xdb;" horiz-adv-x="1220" 
d="M610 109q224 0 296 72q49 49 49 142v377h155v-392q0 -131 -82 -213q-111 -111 -418 -111t-418 111q-82 82 -82 213v392h155v-377q0 -93 49 -142q72 -72 296 -72zM311 754v4l202 163h194l202 -163v-4h-141l-159 102l-159 -102h-139z" />
    <glyph glyph-name="Udieresis" unicode="&#xdc;" horiz-adv-x="1220" 
d="M610 109q224 0 296 72q49 49 49 142v377h155v-392q0 -131 -82 -213q-111 -111 -418 -111t-418 111q-82 82 -82 213v392h155v-377q0 -93 49 -142q72 -72 296 -72zM535 857v-113h-179v113h179zM864 857v-113h-179v113h179z" />
    <glyph glyph-name="Yacute" unicode="&#xdd;" horiz-adv-x="1128" 
d="M567 394l349 306h202v-3l-477 -413v-284h-155v282l-476 415v3h208zM411 745v5l246 152h252v-5l-342 -152h-156z" />
    <glyph glyph-name="Thorn" unicode="&#xde;" horiz-adv-x="1115" 
d="M287 0h-155v700h155v-109h406q136 0 200 -18.5t103 -57.5q53 -53 53 -153q0 -99 -55 -154q-39 -39 -105 -59t-199 -20h-403v-129zM692 466h-405v-212h405q134 0 168 34q26 26 26 72t-26 72q-34 34 -168 34z" />
    <glyph glyph-name="germandbls" unicode="&#xdf;" horiz-adv-x="2278" 
d="M592 105q139 0 201.5 10.5t85.5 33.5q19 19 19 49q0 32 -17 49t-74.5 26t-235.5 18q-202 10 -288.5 29t-123.5 56q-40 40 -40 117q0 88 49 137q40 40 129 61.5t262 21.5q272 0 435 -65v-131q-81 34 -201.5 56t-233.5 22q-228 0 -269 -41q-17 -17 -17 -47q0 -28 15 -43
q17 -17 75.5 -26.5t220.5 -17.5q214 -11 301 -29.5t124 -55.5q43 -43 43 -121q0 -89 -49 -138q-42 -42 -135.5 -65.5t-275.5 -23.5q-145 0 -277.5 21t-214.5 57v131q78 -38 222.5 -64.5t269.5 -26.5zM1727 105q139 0 201.5 10.5t85.5 33.5q19 19 19 49q0 32 -17 49t-74.5 26
t-235.5 18q-202 10 -288.5 29t-123.5 56q-40 40 -40 117q0 88 49 137q40 40 129 61.5t262 21.5q272 0 435 -65v-131q-81 34 -201.5 56t-233.5 22q-228 0 -269 -41q-17 -17 -17 -47q0 -28 15 -43q17 -17 75.5 -26.5t220.5 -17.5q214 -11 301 -29.5t124 -55.5q43 -43 43 -121
q0 -89 -49 -138q-42 -42 -135.5 -65.5t-275.5 -23.5q-145 0 -277.5 21t-214.5 57v131q78 -38 222.5 -64.5t269.5 -26.5z" />
    <glyph glyph-name="agrave" unicode="&#xe0;" horiz-adv-x="1286" 
d="M538 704h210l487 -704h-178l-112 165h-611l-112 -165h-171zM639 616l-221 -327h443zM732 790v-5h-156l-342 152v5h252z" />
    <glyph glyph-name="aacute" unicode="&#xe1;" horiz-adv-x="1228" 
d="M509 704h210l487 -704h-178l-112 165h-611l-112 -165h-171zM610 616l-221 -327h443zM525 785v5l246 152h252v-5l-342 -152h-156z" />
    <glyph glyph-name="acircumflex" unicode="&#xe2;" horiz-adv-x="1228" 
d="M719 704l487 -704h-178l-112 165h-611l-112 -165h-171l487 704h210zM610 616l-221 -327h443zM315 779v4l202 163h194l202 -163v-4h-141l-159 102l-159 -102h-139z" />
    <glyph glyph-name="atilde" unicode="&#xe3;" horiz-adv-x="1228" 
d="M719 704l487 -704h-178l-112 165h-611l-112 -165h-171l487 704h210zM610 616l-221 -327h443zM328 881q65 66 153 66q44 0 103 -20l75 -25q48 -16 88 -16q37 0 70 13.5t79 57.5h4v-110q-65 -66 -153 -66q-43 0 -102 20l-75 25q-48 16 -89 16q-37 0 -70 -13.5t-79 -57.5h-4
v110z" />
    <glyph glyph-name="adieresis" unicode="&#xe4;" horiz-adv-x="1228" 
d="M509 704h210l487 -704h-178l-112 165h-611l-112 -165h-171zM610 616l-221 -327h443zM539 897v-113h-179v113h179zM868 897v-113h-179v113h179z" />
    <glyph glyph-name="aring" unicode="&#xe5;" horiz-adv-x="1228" 
d="M610 907q157 0 212 -55q35 -35 35 -93t-35 -93q-23 -23 -55 -35l439 -631h-180l-112 165h-608l-111 -165h-173l437 629q-35 11 -61 37q-35 35 -35 93t35 93q55 55 212 55zM610 615l-220 -326h441zM610 682q112 0 142 30q18 18 18 47t-18 47q-30 30 -142 30t-142 -30
q-18 -18 -18 -47t18 -47q30 -30 142 -30z" />
    <glyph glyph-name="ae" unicode="&#xe6;" horiz-adv-x="1775" 
d="M986 416h677v-124h-677v-166h691v-126h-836v168h-474l-175 -168h-192l738 700h939v-126h-691v-158zM497 292h344v329z" />
    <glyph glyph-name="ccedilla" unicode="&#xe7;" horiz-adv-x="1158" 
d="M1053 72q-133 -74 -374 -83l-185 -175h-207l247 177q-256 15 -356 117q-91 91 -91 242t91 242q124 124 446 124q270 0 429 -88v-144q-80 47 -193 77t-235 30q-245 0 -326 -81q-56 -56 -56 -160q0 -101 57 -158q83 -83 324 -83q123 0 236.5 28t192.5 72v-137z" />
    <glyph glyph-name="egrave" unicode="&#xe8;" horiz-adv-x="1144" 
d="M286 416h741v-124h-741v-166h755v-126h-909v700h909v-126h-755v-158zM742 780v-5h-156l-342 152v5h252z" />
    <glyph glyph-name="eacute" unicode="&#xe9;" horiz-adv-x="1144" 
d="M286 416h741v-124h-741v-166h755v-126h-909v700h909v-126h-755v-158zM454 775v5l246 152h252v-5l-342 -152h-156z" />
    <glyph glyph-name="ecircumflex" unicode="&#xea;" horiz-adv-x="1144" 
d="M286 416h741v-124h-741v-166h755v-126h-909v700h909v-126h-755v-158zM299 784v4l202 163h194l202 -163v-4h-141l-159 102l-159 -102h-139z" />
    <glyph glyph-name="edieresis" unicode="&#xeb;" horiz-adv-x="1144" 
d="M286 416h741v-124h-741v-166h755v-126h-909v700h909v-126h-755v-158zM523 887v-113h-179v113h179zM852 887v-113h-179v113h179z" />
    <glyph glyph-name="igrave" unicode="&#xec;" horiz-adv-x="435" 
d="M295 0h-155v700h155v-700zM296 780v-5h-156l-342 152v5h252z" />
    <glyph glyph-name="iacute" unicode="&#xed;" horiz-adv-x="435" 
d="M295 0h-155v700h155v-700zM138 775v5l246 152h252v-5l-342 -152h-156z" />
    <glyph glyph-name="icircumflex" unicode="&#xee;" horiz-adv-x="435" 
d="M295 0h-155v700h155v-700zM-82 769v4l202 163h194l202 -163v-4h-141l-159 102l-159 -102h-139z" />
    <glyph glyph-name="idieresis" unicode="&#xef;" horiz-adv-x="435" 
d="M295 0h-155v700h155v-700zM142 887v-113h-179v113h179zM471 887v-113h-179v113h179z" />
    <glyph glyph-name="eth" unicode="&#xf0;" horiz-adv-x="1324" 
d="M230 0v300h-169v104h169v296h512q294 0 405 -111q90 -90 90 -239t-90 -239q-111 -111 -405 -111h-512zM828 404v-104h-446v-174h354q220 0 289 69q54 54 54 155t-54 155q-69 69 -289 69h-354v-170h446z" />
    <glyph glyph-name="ntilde" unicode="&#xf1;" horiz-adv-x="1275" 
d="M360 700l629 -565v565h154v-700h-217l-640 575v-575h-154v700h228zM388 846q65 66 153 66q44 0 103 -20l75 -25q48 -16 88 -16q37 0 70 13.5t79 57.5h4v-110q-65 -66 -153 -66q-43 0 -102 20l-75 25q-48 16 -89 16q-37 0 -70 -13.5t-79 -57.5h-4v110z" />
    <glyph glyph-name="ograve" unicode="&#xf2;" 
d="M638 720q335 0 460 -125q91 -91 91 -245t-91 -245q-125 -125 -460 -125t-459 124q-92 92 -92 246t91 245q125 125 460 125zM638 598q-252 0 -336 -84q-59 -59 -59 -164q0 -102 61 -163q85 -85 334 -85q252 0 337 85q58 58 58 163q0 102 -60 162q-86 86 -335 86zM782 790
v-5h-156l-342 152v5h252z" />
    <glyph glyph-name="oacute" unicode="&#xf3;" 
d="M638 720q335 0 460 -125q91 -91 91 -245t-91 -245q-125 -125 -460 -125t-459 124q-92 92 -92 246t91 245q125 125 460 125zM638 598q-252 0 -336 -84q-59 -59 -59 -164q0 -102 61 -163q85 -85 334 -85q252 0 337 85q58 58 58 163q0 102 -60 162q-86 86 -335 86zM494 785
v5l246 152h252v-5l-342 -152h-156z" />
    <glyph glyph-name="ocircumflex" unicode="&#xf4;" 
d="M638 720q335 0 460 -125q91 -91 91 -245t-91 -245q-125 -125 -460 -125t-459 124q-92 92 -92 246t91 245q125 125 460 125zM638 598q-252 0 -336 -84q-59 -59 -59 -164q0 -102 61 -163q85 -85 334 -85q252 0 337 85q58 58 58 163q0 102 -60 162q-86 86 -335 86zM339 794
v4l202 163h194l202 -163v-4h-141l-159 102l-159 -102h-139z" />
    <glyph glyph-name="otilde" unicode="&#xf5;" 
d="M638 720q335 0 460 -125q91 -91 91 -245t-91 -245q-125 -125 -460 -125t-459 124q-92 92 -92 246t91 245q125 125 460 125zM638 598q-252 0 -336 -84q-59 -59 -59 -164q0 -102 61 -163q85 -85 334 -85q252 0 337 85q58 58 58 163q0 102 -60 162q-86 86 -335 86zM352 881
q65 66 153 66q44 0 103 -20l75 -25q48 -16 88 -16q37 0 70 13.5t79 57.5h4v-110q-65 -66 -153 -66q-43 0 -102 20l-75 25q-48 16 -89 16q-37 0 -70 -13.5t-79 -57.5h-4v110z" />
    <glyph glyph-name="odieresis" unicode="&#xf6;" 
d="M638 720q335 0 460 -125q91 -91 91 -245t-91 -245q-125 -125 -460 -125t-459 124q-92 92 -92 246t91 245q125 125 460 125zM638 598q-252 0 -336 -84q-59 -59 -59 -164q0 -102 61 -163q85 -85 334 -85q252 0 337 85q58 58 58 163q0 102 -60 162q-86 86 -335 86zM563 897
v-113h-179v113h179zM892 897v-113h-179v113h179z" />
    <glyph glyph-name="divide" unicode="&#xf7;" horiz-adv-x="1070" 
d="M617 540h-162v146h162v-146zM943 410v-119h-816v119h816zM617 17h-162v146h162v-146z" />
    <glyph glyph-name="oslash" unicode="&#xf8;" 
d="M87 350q0 154 91 245q125 125 460 125t460 -125q91 -91 91 -245t-91 -245q-125 -125 -460 -125t-459 124q-92 92 -92 246zM243 350q0 -61 16 -99l680 287q-99 60 -301 60q-252 0 -336 -84q-59 -59 -59 -164zM1033 350q0 58 -17 98l-679 -287q97 -59 301 -59q252 0 337 85
q58 58 58 163z" />
    <glyph glyph-name="ugrave" unicode="&#xf9;" horiz-adv-x="1220" 
d="M610 109q224 0 296 72q49 49 49 142v377h155v-392q0 -131 -82 -213q-111 -111 -418 -111t-418 111q-82 82 -82 213v392h155v-377q0 -93 49 -142q72 -72 296 -72zM774 750v-5h-156l-342 152v5h252z" />
    <glyph glyph-name="uacute" unicode="&#xfa;" horiz-adv-x="1220" 
d="M610 109q224 0 296 72q49 49 49 142v377h155v-392q0 -131 -82 -213q-111 -111 -418 -111t-418 111q-82 82 -82 213v392h155v-377q0 -93 49 -142q72 -72 296 -72zM446 745v5l246 152h252v-5l-342 -152h-156z" />
    <glyph glyph-name="ucircumflex" unicode="&#xfb;" horiz-adv-x="1220" 
d="M610 109q224 0 296 72q49 49 49 142v377h155v-392q0 -131 -82 -213q-111 -111 -418 -111t-418 111q-82 82 -82 213v392h155v-377q0 -93 49 -142q72 -72 296 -72zM311 754v4l202 163h194l202 -163v-4h-141l-159 102l-159 -102h-139z" />
    <glyph glyph-name="udieresis" unicode="&#xfc;" horiz-adv-x="1220" 
d="M610 109q224 0 296 72q49 49 49 142v377h155v-392q0 -131 -82 -213q-111 -111 -418 -111t-418 111q-82 82 -82 213v392h155v-377q0 -93 49 -142q72 -72 296 -72zM535 857v-113h-179v113h179zM864 857v-113h-179v113h179z" />
    <glyph glyph-name="yacute" unicode="&#xfd;" horiz-adv-x="1128" 
d="M567 394l349 306h202v-3l-477 -413v-284h-155v282l-476 415v3h208zM411 745v5l246 152h252v-5l-342 -152h-156z" />
    <glyph glyph-name="thorn" unicode="&#xfe;" horiz-adv-x="1115" 
d="M287 0h-155v700h155v-109h406q136 0 200 -18.5t103 -57.5q53 -53 53 -153q0 -99 -55 -154q-39 -39 -105 -59t-199 -20h-403v-129zM692 466h-405v-212h405q134 0 168 34q26 26 26 72t-26 72q-34 34 -168 34z" />
    <glyph glyph-name="ydieresis" unicode="&#xff;" horiz-adv-x="1128" 
d="M567 394l349 306h202v-3l-477 -413v-284h-155v282l-476 415v3h208zM492 857v-113h-179v113h179zM821 857v-113h-179v113h179z" />
    <glyph glyph-name="Amacron" unicode="&#x100;" horiz-adv-x="1228" 
d="M509 704h210l487 -704h-178l-112 165h-611l-112 -165h-171zM610 616l-221 -327h443zM939 802h-650v97h650v-97z" />
    <glyph glyph-name="amacron" unicode="&#x101;" horiz-adv-x="1228" 
d="M509 704h210l487 -704h-178l-112 165h-611l-112 -165h-171zM610 616l-221 -327h443zM939 802h-650v97h650v-97z" />
    <glyph glyph-name="Abreve" unicode="&#x102;" horiz-adv-x="1228" 
d="M719 704l487 -704h-178l-112 165h-611l-112 -165h-171l487 704h210zM610 616l-221 -327h443zM614 775q-76 0 -150.5 24.5t-125.5 64.5v96h5q54 -36 126 -59t145 -23t145 23t126 59h5v-96q-51 -40 -125.5 -64.5t-150.5 -24.5z" />
    <glyph glyph-name="abreve" unicode="&#x103;" horiz-adv-x="1228" 
d="M719 704l487 -704h-178l-112 165h-611l-112 -165h-171l487 704h210zM610 616l-221 -327h443zM614 775q-76 0 -150.5 24.5t-125.5 64.5v96h5q54 -36 126 -59t145 -23t145 23t126 59h5v-96q-51 -40 -125.5 -64.5t-150.5 -24.5z" />
    <glyph glyph-name="Aogonek" unicode="&#x104;" horiz-adv-x="1228" 
d="M719 704l487 -704h-143l-42 -18q-103 -45 -114 -56q-6 -6 -6 -11q0 -4 3 -7q17 -17 148 -17q112 0 195 19v-100q-82 -17 -203 -17q-204 0 -244 40q-19 19 -19 54q0 32 25 57q20 20 59.5 37.5t126.5 45.5l14 4l-90 134h-611l-112 -165h-171l487 704h210zM610 616
l-221 -327h443z" />
    <glyph glyph-name="aogonek" unicode="&#x105;" horiz-adv-x="1228" 
d="M719 704l487 -704h-143l-42 -18q-103 -45 -114 -56q-6 -6 -6 -11q0 -4 3 -7q17 -17 148 -17q112 0 195 19v-100q-82 -17 -203 -17q-204 0 -244 40q-19 19 -19 54q0 32 25 57q20 20 59.5 37.5t126.5 45.5l14 4l-90 134h-611l-112 -165h-171l487 704h210zM610 616
l-221 -327h443z" />
    <glyph glyph-name="Cacute" unicode="&#x106;" horiz-adv-x="1158" 
d="M624 -16q-322 0 -446 124q-91 91 -91 242t91 242q124 124 446 124q270 0 429 -88v-144q-80 47 -193 77t-235 30q-245 0 -326 -81q-56 -56 -56 -160q0 -101 57 -158q83 -83 324 -83q123 0 236.5 28t192.5 72v-137q-159 -88 -429 -88zM484 785v5l246 152h252v-5l-342 -152
h-156z" />
    <glyph glyph-name="cacute" unicode="&#x107;" horiz-adv-x="1158" 
d="M624 -16q-322 0 -446 124q-91 91 -91 242t91 242q124 124 446 124q270 0 429 -88v-144q-80 47 -193 77t-235 30q-245 0 -326 -81q-56 -56 -56 -160q0 -101 57 -158q83 -83 324 -83q123 0 236.5 28t192.5 72v-137q-159 -88 -429 -88zM484 785v5l246 152h252v-5l-342 -152
h-156z" />
    <glyph glyph-name="Cdotaccent" unicode="&#x10a;" horiz-adv-x="1158" 
d="M624 -16q-322 0 -446 124q-91 91 -91 242t91 242q124 124 446 124q270 0 429 -88v-144q-80 47 -193 77t-235 30q-245 0 -326 -81q-56 -56 -56 -160q0 -101 57 -158q83 -83 324 -83q123 0 236.5 28t192.5 72v-137q-159 -88 -429 -88zM721 903v-116h-186v116h186z" />
    <glyph glyph-name="cdotaccent" unicode="&#x10b;" horiz-adv-x="1158" 
d="M624 -16q-322 0 -446 124q-91 91 -91 242t91 242q124 124 446 124q270 0 429 -88v-144q-80 47 -193 77t-235 30q-245 0 -326 -81q-56 -56 -56 -160q0 -101 57 -158q83 -83 324 -83q123 0 236.5 28t192.5 72v-137q-159 -88 -429 -88zM721 903v-116h-186v116h186z" />
    <glyph glyph-name="Ccaron" unicode="&#x10c;" horiz-adv-x="1158" 
d="M624 -16q-322 0 -446 124q-91 91 -91 242t91 242q124 124 446 124q270 0 429 -88v-144q-80 47 -193 77t-235 30q-245 0 -326 -81q-56 -56 -56 -160q0 -101 57 -158q83 -83 324 -83q123 0 236.5 28t192.5 72v-137q-159 -88 -429 -88zM927 951v-4l-202 -163h-194l-202 163
v4h141l159 -102l159 102h139z" />
    <glyph glyph-name="ccaron" unicode="&#x10d;" horiz-adv-x="1158" 
d="M624 -16q-322 0 -446 124q-91 91 -91 242t91 242q124 124 446 124q270 0 429 -88v-144q-80 47 -193 77t-235 30q-245 0 -326 -81q-56 -56 -56 -160q0 -101 57 -158q83 -83 324 -83q123 0 236.5 28t192.5 72v-137q-159 -88 -429 -88zM927 951v-4l-202 -163h-194l-202 163
v4h141l159 -102l159 102h139z" />
    <glyph glyph-name="Dcaron" unicode="&#x10e;" horiz-adv-x="1226" 
d="M1139 350q0 -149 -90 -239q-111 -111 -405 -111h-512v700h512q294 0 405 -111q90 -90 90 -239zM287 126h354q219 0 288 69q54 54 54 155t-54 155q-69 69 -288 69h-354v-448zM919 941v-4l-202 -163h-194l-202 163v4h141l159 -102l159 102h139z" />
    <glyph glyph-name="dcaron" unicode="&#x10f;" horiz-adv-x="1226" 
d="M1139 350q0 -149 -90 -239q-111 -111 -405 -111h-512v700h512q294 0 405 -111q90 -90 90 -239zM287 126h354q219 0 288 69q54 54 54 155t-54 155q-69 69 -288 69h-354v-448zM919 941v-4l-202 -163h-194l-202 163v4h141l159 -102l159 102h139z" />
    <glyph glyph-name="Dcroat" unicode="&#x110;" horiz-adv-x="1324" 
d="M230 0v300h-169v104h169v296h512q294 0 405 -111q90 -90 90 -239t-90 -239q-111 -111 -405 -111h-512zM828 404v-104h-446v-174h354q220 0 289 69q54 54 54 155t-54 155q-69 69 -289 69h-354v-170h446z" />
    <glyph glyph-name="dcroat" unicode="&#x111;" horiz-adv-x="1324" 
d="M230 0v300h-169v104h169v296h512q294 0 405 -111q90 -90 90 -239t-90 -239q-111 -111 -405 -111h-512zM828 404v-104h-446v-174h354q220 0 289 69q54 54 54 155t-54 155q-69 69 -289 69h-354v-170h446z" />
    <glyph glyph-name="Emacron" unicode="&#x112;" horiz-adv-x="1144" 
d="M286 416h741v-124h-741v-166h755v-126h-909v700h909v-126h-755v-158zM923 792h-650v97h650v-97z" />
    <glyph glyph-name="emacron" unicode="&#x113;" horiz-adv-x="1144" 
d="M286 416h741v-124h-741v-166h755v-126h-909v700h909v-126h-755v-158zM923 792h-650v97h650v-97z" />
    <glyph glyph-name="Ebreve" unicode="&#x114;" horiz-adv-x="1144" 
d="M286 416h741v-124h-741v-166h755v-126h-909v700h909v-126h-755v-158zM598 765q-76 0 -150.5 24.5t-125.5 64.5v96h5q54 -36 126 -59t145 -23t145 23t126 59h5v-96q-51 -40 -125.5 -64.5t-150.5 -24.5z" />
    <glyph glyph-name="ebreve" unicode="&#x115;" horiz-adv-x="1144" 
d="M286 416h741v-124h-741v-166h755v-126h-909v700h909v-126h-755v-158zM598 765q-76 0 -150.5 24.5t-125.5 64.5v96h5q54 -36 126 -59t145 -23t145 23t126 59h5v-96q-51 -40 -125.5 -64.5t-150.5 -24.5z" />
    <glyph glyph-name="Edotaccent" unicode="&#x116;" horiz-adv-x="1144" 
d="M286 416h741v-124h-741v-166h755v-126h-909v700h909v-126h-755v-158zM691 893v-116h-186v116h186z" />
    <glyph glyph-name="edotaccent" unicode="&#x117;" horiz-adv-x="1144" 
d="M286 416h741v-124h-741v-166h755v-126h-909v700h909v-126h-755v-158zM691 893v-116h-186v116h186z" />
    <glyph glyph-name="Eogonek" unicode="&#x118;" horiz-adv-x="1144" 
d="M1042 -90v-100q-82 -17 -203 -17q-204 0 -244 40q-19 19 -19 51q0 35 24 59q23 23 101 57h-569v700h909v-126h-755v-158h741v-124h-741v-166h755v-126h-218l-31 -18q-81 -45 -90 -54q-6 -6 -6 -12t4 -10q15 -15 147 -15q112 0 195 19z" />
    <glyph glyph-name="eogonek" unicode="&#x119;" horiz-adv-x="1144" 
d="M1042 -90v-100q-82 -17 -203 -17q-204 0 -244 40q-19 19 -19 51q0 35 24 59q23 23 101 57h-569v700h909v-126h-755v-158h741v-124h-741v-166h755v-126h-218l-31 -18q-81 -45 -90 -54q-6 -6 -6 -12t4 -10q15 -15 147 -15q112 0 195 19z" />
    <glyph glyph-name="Ecaron" unicode="&#x11a;" horiz-adv-x="1144" 
d="M286 416h741v-124h-741v-166h755v-126h-909v700h909v-126h-755v-158zM897 941v-4l-202 -163h-194l-202 163v4h141l159 -102l159 102h139z" />
    <glyph glyph-name="ecaron" unicode="&#x11b;" horiz-adv-x="1144" 
d="M286 416h741v-124h-741v-166h755v-126h-909v700h909v-126h-755v-158zM897 941v-4l-202 -163h-194l-202 163v4h141l159 -102l159 102h139z" />
    <glyph glyph-name="Gbreve" unicode="&#x11e;" horiz-adv-x="1237" 
d="M563 388h589v-80q0 -137 -75 -212q-112 -112 -435 -112q-195 0 -300.5 33.5t-163.5 91.5q-91 91 -91 241q0 151 91 242q124 124 464 124q151 0 271.5 -22.5t189.5 -57.5v-142q-80 43 -201 70t-260 27q-262 0 -343 -81q-56 -56 -56 -160q0 -105 56 -161q84 -84 343 -84
q121 0 201.5 19t112.5 51q37 37 37 89h-430v124zM640 775q-76 0 -150.5 24.5t-125.5 64.5v96h5q54 -36 126 -59t145 -23t145 23t126 59h5v-96q-51 -40 -125.5 -64.5t-150.5 -24.5z" />
    <glyph glyph-name="gbreve" unicode="&#x11f;" horiz-adv-x="1237" 
d="M563 388h589v-80q0 -137 -75 -212q-112 -112 -435 -112q-195 0 -300.5 33.5t-163.5 91.5q-91 91 -91 241q0 151 91 242q124 124 464 124q151 0 271.5 -22.5t189.5 -57.5v-142q-80 43 -201 70t-260 27q-262 0 -343 -81q-56 -56 -56 -160q0 -105 56 -161q84 -84 343 -84
q121 0 201.5 19t112.5 51q37 37 37 89h-430v124zM640 775q-76 0 -150.5 24.5t-125.5 64.5v96h5q54 -36 126 -59t145 -23t145 23t126 59h5v-96q-51 -40 -125.5 -64.5t-150.5 -24.5z" />
    <glyph glyph-name="Gdotaccent" unicode="&#x120;" horiz-adv-x="1237" 
d="M563 388h589v-80q0 -137 -75 -212q-112 -112 -435 -112q-195 0 -300.5 33.5t-163.5 91.5q-91 91 -91 241q0 151 91 242q124 124 464 124q151 0 271.5 -22.5t189.5 -57.5v-142q-80 43 -201 70t-260 27q-262 0 -343 -81q-56 -56 -56 -160q0 -105 56 -161q84 -84 343 -84
q121 0 201.5 19t112.5 51q37 37 37 89h-430v124zM733 903v-116h-186v116h186z" />
    <glyph glyph-name="gdotaccent" unicode="&#x121;" horiz-adv-x="1237" 
d="M563 388h589v-80q0 -137 -75 -212q-112 -112 -435 -112q-195 0 -300.5 33.5t-163.5 91.5q-91 91 -91 241q0 151 91 242q124 124 464 124q151 0 271.5 -22.5t189.5 -57.5v-142q-80 43 -201 70t-260 27q-262 0 -343 -81q-56 -56 -56 -160q0 -105 56 -161q84 -84 343 -84
q121 0 201.5 19t112.5 51q37 37 37 89h-430v124zM733 903v-116h-186v116h186z" />
    <glyph glyph-name="Gcommaaccent" unicode="&#x122;" horiz-adv-x="1237" 
d="M563 388h589v-80q0 -137 -75 -212q-112 -112 -435 -112q-195 0 -300.5 33.5t-163.5 91.5q-91 91 -91 241q0 151 91 242q124 124 464 124q151 0 271.5 -22.5t189.5 -57.5v-142q-80 43 -201 70t-260 27q-262 0 -343 -81q-56 -56 -56 -160q0 -105 56 -161q84 -84 343 -84
q121 0 201.5 19t112.5 51q37 37 37 89h-430v124zM432 -266l39 31q75 60 98 88t23 61h155q0 -73 -154 -159l-38 -21h-123z" />
    <glyph glyph-name="gcommaaccent" unicode="&#x123;" horiz-adv-x="1237" 
d="M563 388h589v-80q0 -137 -75 -212q-112 -112 -435 -112q-195 0 -300.5 33.5t-163.5 91.5q-91 91 -91 241q0 151 91 242q124 124 464 124q151 0 271.5 -22.5t189.5 -57.5v-142q-80 43 -201 70t-260 27q-262 0 -343 -81q-56 -56 -56 -160q0 -105 56 -161q84 -84 343 -84
q121 0 201.5 19t112.5 51q37 37 37 89h-430v124zM432 -266l39 31q75 60 98 88t23 61h155q0 -73 -154 -159l-38 -21h-123z" />
    <glyph glyph-name="Hbar" unicode="&#x126;" horiz-adv-x="1411" 
d="M1337 606v-103h-145v-503h-155v280h-652v-280h-155v503h-156v103h156v94h155v-97h652v97h155v-94h145zM385 408h652v98h-652v-98z" />
    <glyph glyph-name="hbar" unicode="&#x127;" horiz-adv-x="1411" 
d="M1337 606v-103h-145v-503h-155v280h-652v-280h-155v503h-156v103h156v94h155v-97h652v97h155v-94h145zM385 408h652v98h-652v-98z" />
    <glyph glyph-name="Imacron" unicode="&#x12a;" horiz-adv-x="435" 
d="M295 0h-155v700h155v-700zM542 792h-650v97h650v-97z" />
    <glyph glyph-name="imacron" unicode="&#x12b;" horiz-adv-x="435" 
d="M295 0h-155v700h155v-700zM542 792h-650v97h650v-97z" />
    <glyph glyph-name="Ibreve" unicode="&#x12c;" horiz-adv-x="435" 
d="M295 0h-155v700h155v-700zM217 765q-77 0 -151 24.5t-125 64.5v96h5q54 -36 126 -59t145 -23t145 23t126 59h5v-96q-51 -40 -125 -64.5t-151 -24.5z" />
    <glyph glyph-name="ibreve" unicode="&#x12d;" horiz-adv-x="435" 
d="M295 0h-155v700h155v-700zM217 765q-77 0 -151 24.5t-125 64.5v96h5q54 -36 126 -59t145 -23t145 23t126 59h5v-96q-51 -40 -125 -64.5t-151 -24.5z" />
    <glyph glyph-name="Iogonek" unicode="&#x12e;" horiz-adv-x="435" 
d="M140 700h155v-700h-69l-12 -9q-73 -52 -78 -57q-8 -8 -8 -16q0 -6 4 -10q14 -14 104 -14q75 0 154 19v-103q-82 -17 -164 -17q-164 0 -204 40q-19 19 -19 50t26 57q22 23 111 76v684z" />
    <glyph glyph-name="iogonek" unicode="&#x12f;" horiz-adv-x="435" 
d="M140 700h155v-700h-69l-12 -9q-73 -52 -78 -57q-8 -8 -8 -16q0 -6 4 -10q14 -14 104 -14q75 0 154 19v-103q-82 -17 -164 -17q-164 0 -204 40q-19 19 -19 50t26 57q22 23 111 76v684z" />
    <glyph glyph-name="Idotaccent" unicode="&#x130;" horiz-adv-x="435" 
d="M295 0h-155v700h155v-700zM310 893v-116h-186v116h186z" />
    <glyph glyph-name="dotlessi" unicode="&#x131;" horiz-adv-x="435" 
d="M295 0h-155v700h155v-700z" />
    <glyph glyph-name="Kcommaaccent" unicode="&#x136;" horiz-adv-x="1126" 
d="M132 700h155v-283h147l435 283h229v-3l-540 -343l548 -351v-3h-241l-443 291h-135v-291h-155v700zM339 -226l39 31q75 60 98 88t23 61h155q0 -73 -154 -159l-38 -21h-123z" />
    <glyph glyph-name="kcommaaccent" unicode="&#x137;" horiz-adv-x="1126" 
d="M132 700h155v-283h147l435 283h229v-3l-540 -343l548 -351v-3h-241l-443 291h-135v-291h-155v700zM339 -226l39 31q75 60 98 88t23 61h155q0 -73 -154 -159l-38 -21h-123z" />
    <glyph glyph-name="Lacute" unicode="&#x139;" horiz-adv-x="1048" 
d="M287 128h704v-128h-859v700h155v-572zM135 775v5l246 152h252v-5l-342 -152h-156z" />
    <glyph glyph-name="lacute" unicode="&#x13a;" horiz-adv-x="1048" 
d="M287 128h704v-128h-859v700h155v-572zM135 775v5l246 152h252v-5l-342 -152h-156z" />
    <glyph glyph-name="Lcommaaccent" unicode="&#x13b;" horiz-adv-x="1048" 
d="M287 128h704v-128h-859v700h155v-572zM341 -256l39 31q75 60 98 88t23 61h155q0 -73 -154 -159l-38 -21h-123z" />
    <glyph glyph-name="lcommaaccent" unicode="&#x13c;" horiz-adv-x="1048" 
d="M287 128h704v-128h-859v700h155v-572zM341 -256l39 31q75 60 98 88t23 61h155q0 -73 -154 -159l-38 -21h-123z" />
    <glyph glyph-name="Lcaron" unicode="&#x13d;" horiz-adv-x="1048" 
d="M287 128h704v-128h-859v700h155v-572zM469 496h-76l20 279h131z" />
    <glyph glyph-name="lcaron" unicode="&#x13e;" horiz-adv-x="1048" 
d="M287 128h704v-128h-859v700h155v-572zM469 496h-76l20 279h131z" />
    <glyph glyph-name="Ldot" unicode="&#x13f;" horiz-adv-x="1048" 
d="M287 128h704v-128h-859v700h155v-572zM833 488v-116h-186v116h186z" />
    <glyph glyph-name="ldot" unicode="&#x140;" horiz-adv-x="1048" 
d="M287 128h704v-128h-859v700h155v-572zM833 488v-116h-186v116h186z" />
    <glyph glyph-name="Lslash" unicode="&#x141;" horiz-adv-x="1109" 
d="M385 128h704v-128h-859v254l-160 -51v115l160 50v332h155v-284l383 121v-112l-383 -122v-175z" />
    <glyph glyph-name="lslash" unicode="&#x142;" horiz-adv-x="1109" 
d="M385 128h704v-128h-859v254l-160 -51v115l160 50v332h155v-284l383 121v-112l-383 -122v-175z" />
    <glyph glyph-name="Nacute" unicode="&#x143;" horiz-adv-x="1275" 
d="M360 700l629 -565v565h154v-700h-217l-640 575v-575h-154v700h228zM530 745v5l246 152h252v-5l-342 -152h-156z" />
    <glyph glyph-name="nacute" unicode="&#x144;" horiz-adv-x="1275" 
d="M360 700l629 -565v565h154v-700h-217l-640 575v-575h-154v700h228zM530 745v5l246 152h252v-5l-342 -152h-156z" />
    <glyph glyph-name="Ncommaaccent" unicode="&#x145;" horiz-adv-x="1275" 
d="M360 700l629 -565v565h154v-700h-217l-640 575v-575h-154v700h228zM371 -226l39 31q75 60 98 88t23 61h155q0 -73 -154 -159l-38 -21h-123z" />
    <glyph glyph-name="ncommaaccent" unicode="&#x146;" horiz-adv-x="1277" 
d="M360 700l629 -565v565h154v-700h-217l-640 575v-575h-154v700h228zM371 -226l39 31q75 60 98 88t23 61h155q0 -73 -154 -159l-38 -21h-123z" />
    <glyph glyph-name="Ncaron" unicode="&#x147;" horiz-adv-x="1275" 
d="M360 700l629 -565v565h154v-700h-217l-640 575v-575h-154v700h228zM973 911v-4l-202 -163h-194l-202 163v4h141l159 -102l159 102h139z" />
    <glyph glyph-name="ncaron" unicode="&#x148;" horiz-adv-x="1275" 
d="M360 700l629 -565v565h154v-700h-217l-640 575v-575h-154v700h228zM973 911v-4l-202 -163h-194l-202 163v4h141l159 -102l159 102h139z" />
    <glyph glyph-name="Omacron" unicode="&#x14c;" 
d="M638 720q335 0 460 -125q91 -91 91 -245t-91 -245q-125 -125 -460 -125t-459 124q-92 92 -92 246t91 245q125 125 460 125zM638 598q-252 0 -336 -84q-59 -59 -59 -164q0 -102 61 -163q85 -85 334 -85q252 0 337 85q58 58 58 163q0 102 -60 162q-86 86 -335 86zM963 802
h-650v97h650v-97z" />
    <glyph glyph-name="omacron" unicode="&#x14d;" 
d="M638 720q335 0 460 -125q91 -91 91 -245t-91 -245q-125 -125 -460 -125t-459 124q-92 92 -92 246t91 245q125 125 460 125zM638 598q-252 0 -336 -84q-59 -59 -59 -164q0 -102 61 -163q85 -85 334 -85q252 0 337 85q58 58 58 163q0 102 -60 162q-86 86 -335 86zM963 802
h-650v97h650v-97z" />
    <glyph glyph-name="Obreve" unicode="&#x14e;" 
d="M638 720q335 0 460 -125q91 -91 91 -245t-91 -245q-125 -125 -460 -125t-459 124q-92 92 -92 246t91 245q125 125 460 125zM638 598q-252 0 -336 -84q-59 -59 -59 -164q0 -102 61 -163q85 -85 334 -85q252 0 337 85q58 58 58 163q0 102 -60 162q-86 86 -335 86zM638 775
q-76 0 -150.5 24.5t-125.5 64.5v96h5q54 -36 126 -59t145 -23t145 23t126 59h5v-96q-51 -40 -125.5 -64.5t-150.5 -24.5z" />
    <glyph glyph-name="obreve" unicode="&#x14f;" 
d="M638 720q335 0 460 -125q91 -91 91 -245t-91 -245q-125 -125 -460 -125t-459 124q-92 92 -92 246t91 245q125 125 460 125zM638 598q-252 0 -336 -84q-59 -59 -59 -164q0 -102 61 -163q85 -85 334 -85q252 0 337 85q58 58 58 163q0 102 -60 162q-86 86 -335 86zM638 775
q-76 0 -150.5 24.5t-125.5 64.5v96h5q54 -36 126 -59t145 -23t145 23t126 59h5v-96q-51 -40 -125.5 -64.5t-150.5 -24.5z" />
    <glyph glyph-name="Ohungarumlaut" unicode="&#x150;" 
d="M638 720q335 0 460 -125q91 -91 91 -245t-91 -245q-125 -125 -460 -125t-459 124q-92 92 -92 246t91 245q125 125 460 125zM638 598q-252 0 -336 -84q-59 -59 -59 -164q0 -102 61 -163q85 -85 334 -85q252 0 337 85q58 58 58 163q0 102 -60 162q-86 86 -335 86zM397 785
v5l213 166h212v-5l-301 -166h-124zM745 785v5l213 166h212v-5l-301 -166h-124z" />
    <glyph glyph-name="ohungarumlaut" unicode="&#x151;" 
d="M638 720q335 0 460 -125q91 -91 91 -245t-91 -245q-125 -125 -460 -125t-459 124q-92 92 -92 246t91 245q125 125 460 125zM638 598q-252 0 -336 -84q-59 -59 -59 -164q0 -102 61 -163q85 -85 334 -85q252 0 337 85q58 58 58 163q0 102 -60 162q-86 86 -335 86zM397 785
v5l213 166h212v-5l-301 -166h-124zM745 785v5l213 166h212v-5l-301 -166h-124z" />
    <glyph glyph-name="OE" unicode="&#x152;" horiz-adv-x="1828" 
d="M1725 700v-126h-683v-158h669v-124h-669v-166h683v-126h-1143q-294 0 -405 111q-90 90 -90 239t90 239q111 111 405 111h1143zM889 126v448h-301q-218 0 -287 -69q-54 -54 -54 -155t54 -155q69 -69 287 -69h301z" />
    <glyph glyph-name="oe" unicode="&#x153;" horiz-adv-x="1828" 
d="M1725 700v-126h-683v-158h669v-124h-669v-166h683v-126h-1143q-294 0 -405 111q-90 90 -90 239t90 239q111 111 405 111h1143zM889 126v448h-301q-218 0 -287 -69q-54 -54 -54 -155t54 -155q69 -69 287 -69h301z" />
    <glyph glyph-name="Racute" unicode="&#x154;" horiz-adv-x="1196" 
d="M132 700h586q138 0 202.5 -18.5t105.5 -59.5q53 -53 53 -154q0 -98 -57 -155q-68 -68 -230 -79l376 -231v-3h-234l-370 232h-277v-232h-155v700zM287 574v-220h433q141 0 180 39q25 25 25 71q0 47 -27 74q-19 19 -57.5 27.5t-119.5 8.5h-434zM446 775v5l246 152h252v-5
l-342 -152h-156z" />
    <glyph glyph-name="racute" unicode="&#x155;" horiz-adv-x="1196" 
d="M132 700h586q138 0 202.5 -18.5t105.5 -59.5q53 -53 53 -154q0 -98 -57 -155q-68 -68 -230 -79l376 -231v-3h-234l-370 232h-277v-232h-155v700zM287 574v-220h433q141 0 180 39q25 25 25 71q0 47 -27 74q-19 19 -57.5 27.5t-119.5 8.5h-434zM446 775v5l246 152h252v-5
l-342 -152h-156z" />
    <glyph glyph-name="Rcommaaccent" unicode="&#x156;" horiz-adv-x="1196" 
d="M132 700h586q138 0 202.5 -18.5t105.5 -59.5q53 -53 53 -154q0 -98 -57 -155q-68 -68 -230 -79l376 -231v-3h-234l-370 232h-277v-232h-155v700zM287 574v-220h433q141 0 180 39q25 25 25 71q0 47 -27 74q-19 19 -57.5 27.5t-119.5 8.5h-434zM377 -226l39 31q75 60 98 88
t23 61h155q0 -73 -154 -159l-38 -21h-123z" />
    <glyph glyph-name="rcommaaccent" unicode="&#x157;" horiz-adv-x="1196" 
d="M132 700h586q138 0 202.5 -18.5t105.5 -59.5q53 -53 53 -154q0 -98 -57 -155q-68 -68 -230 -79l376 -231v-3h-234l-370 232h-277v-232h-155v700zM287 574v-220h433q141 0 180 39q25 25 25 71q0 47 -27 74q-19 19 -57.5 27.5t-119.5 8.5h-434zM377 -226l39 31q75 60 98 88
t23 61h155q0 -73 -154 -159l-38 -21h-123z" />
    <glyph glyph-name="Rcaron" unicode="&#x158;" horiz-adv-x="1196" 
d="M132 700h586q138 0 202.5 -18.5t105.5 -59.5q53 -53 53 -154q0 -98 -57 -155q-68 -68 -230 -79l376 -231v-3h-234l-370 232h-277v-232h-155v700zM287 574v-220h433q141 0 180 39q25 25 25 71q0 47 -27 74q-19 19 -57.5 27.5t-119.5 8.5h-434zM889 941v-4l-202 -163h-194
l-202 163v4h141l159 -102l159 102h139z" />
    <glyph glyph-name="rcaron" unicode="&#x159;" horiz-adv-x="1196" 
d="M132 700h586q138 0 202.5 -18.5t105.5 -59.5q53 -53 53 -154q0 -98 -57 -155q-68 -68 -230 -79l376 -231v-3h-234l-370 232h-277v-232h-155v700zM287 574v-220h433q141 0 180 39q25 25 25 71q0 47 -27 74q-19 19 -57.5 27.5t-119.5 8.5h-434zM889 941v-4l-202 -163h-194
l-202 163v4h141l159 -102l159 102h139z" />
    <glyph glyph-name="Sacute" unicode="&#x15a;" horiz-adv-x="1143" 
d="M592 105q139 0 201.5 10.5t85.5 33.5q19 19 19 49q0 32 -17 49t-74.5 26t-235.5 18q-202 10 -288.5 29t-123.5 56q-40 40 -40 117q0 88 49 137q40 40 129 61.5t262 21.5q272 0 435 -65v-131q-81 34 -201.5 56t-233.5 22q-228 0 -269 -41q-17 -17 -17 -47q0 -28 15 -43
q17 -17 75.5 -26.5t220.5 -17.5q214 -11 301 -29.5t124 -55.5q43 -43 43 -121q0 -89 -49 -138q-42 -42 -135.5 -65.5t-275.5 -23.5q-145 0 -277.5 21t-214.5 57v131q78 -38 222.5 -64.5t269.5 -26.5zM442 785v5l246 152h252v-5l-342 -152h-156z" />
    <glyph glyph-name="sacute" unicode="&#x15b;" horiz-adv-x="1143" 
d="M592 105q139 0 201.5 10.5t85.5 33.5q19 19 19 49q0 32 -17 49t-74.5 26t-235.5 18q-202 10 -288.5 29t-123.5 56q-40 40 -40 117q0 88 49 137q40 40 129 61.5t262 21.5q272 0 435 -65v-131q-81 34 -201.5 56t-233.5 22q-228 0 -269 -41q-17 -17 -17 -47q0 -28 15 -43
q17 -17 75.5 -26.5t220.5 -17.5q214 -11 301 -29.5t124 -55.5q43 -43 43 -121q0 -89 -49 -138q-42 -42 -135.5 -65.5t-275.5 -23.5q-145 0 -277.5 21t-214.5 57v131q78 -38 222.5 -64.5t269.5 -26.5zM442 785v5l246 152h252v-5l-342 -152h-156z" />
    <glyph glyph-name="Scedilla" unicode="&#x15e;" horiz-adv-x="1143" 
d="M592 105q139 0 201.5 10.5t85.5 33.5q19 19 19 49q0 32 -17 49t-74.5 26t-235.5 18q-202 10 -288.5 29t-123.5 56q-40 40 -40 117q0 88 49 137q40 40 129 61.5t262 21.5q272 0 435 -65v-131q-81 34 -201.5 56t-233.5 22q-228 0 -269 -41q-17 -17 -17 -47q0 -28 15 -43
q17 -17 75.5 -26.5t220.5 -17.5q214 -11 301 -29.5t124 -55.5q43 -43 43 -121q0 -89 -49 -138q-82 -82 -359 -88l-183 -174h-207l245 176q-259 13 -399 75v131q78 -38 222.5 -64.5t269.5 -26.5z" />
    <glyph glyph-name="scedilla" unicode="&#x15f;" horiz-adv-x="1143" 
d="M592 105q139 0 201.5 10.5t85.5 33.5q19 19 19 49q0 32 -17 49t-74.5 26t-235.5 18q-202 10 -288.5 29t-123.5 56q-40 40 -40 117q0 88 49 137q40 40 129 61.5t262 21.5q272 0 435 -65v-131q-81 34 -201.5 56t-233.5 22q-228 0 -269 -41q-17 -17 -17 -47q0 -28 15 -43
q17 -17 75.5 -26.5t220.5 -17.5q214 -11 301 -29.5t124 -55.5q43 -43 43 -121q0 -89 -49 -138q-82 -82 -359 -88l-183 -174h-207l245 176q-259 13 -399 75v131q78 -38 222.5 -64.5t269.5 -26.5z" />
    <glyph glyph-name="Scaron" unicode="&#x160;" horiz-adv-x="1143" 
d="M592 105q139 0 201.5 10.5t85.5 33.5q19 19 19 49q0 32 -17 49t-74.5 26t-235.5 18q-202 10 -288.5 29t-123.5 56q-40 40 -40 117q0 88 49 137q40 40 129 61.5t262 21.5q272 0 435 -65v-131q-81 34 -201.5 56t-233.5 22q-228 0 -269 -41q-17 -17 -17 -47q0 -28 15 -43
q17 -17 75.5 -26.5t220.5 -17.5q214 -11 301 -29.5t124 -55.5q43 -43 43 -121q0 -89 -49 -138q-42 -42 -135.5 -65.5t-275.5 -23.5q-145 0 -277.5 21t-214.5 57v131q78 -38 222.5 -64.5t269.5 -26.5zM885 951v-4l-202 -163h-194l-202 163v4h141l159 -102l159 102h139z" />
    <glyph glyph-name="scaron" unicode="&#x161;" horiz-adv-x="1143" 
d="M592 105q139 0 201.5 10.5t85.5 33.5q19 19 19 49q0 32 -17 49t-74.5 26t-235.5 18q-202 10 -288.5 29t-123.5 56q-40 40 -40 117q0 88 49 137q40 40 129 61.5t262 21.5q272 0 435 -65v-131q-81 34 -201.5 56t-233.5 22q-228 0 -269 -41q-17 -17 -17 -47q0 -28 15 -43
q17 -17 75.5 -26.5t220.5 -17.5q214 -11 301 -29.5t124 -55.5q43 -43 43 -121q0 -89 -49 -138q-42 -42 -135.5 -65.5t-275.5 -23.5q-145 0 -277.5 21t-214.5 57v131q78 -38 222.5 -64.5t269.5 -26.5zM885 951v-4l-202 -163h-194l-202 163v4h141l159 -102l159 102h139z" />
    <glyph glyph-name="Tcommaaccent" unicode="&#x162;" horiz-adv-x="1159" 
d="M1104 700v-126h-447v-574h-155v574h-447v126h1049zM338 -246l39 31q75 60 98 88t23 61h155q0 -73 -154 -159l-38 -21h-123z" />
    <glyph glyph-name="Tcommaaccent" unicode="&#x21a;" horiz-adv-x="1159" 
d="M1104 700v-126h-447v-574h-155v574h-447v126h1049zM338 -246l39 31q75 60 98 88t23 61h155q0 -73 -154 -159l-38 -21h-123z" />
    <glyph glyph-name="tcommaaccent" unicode="&#x163;" horiz-adv-x="1159" 
d="M1104 700v-126h-447v-574h-155v574h-447v126h1049zM338 -246l39 31q75 60 98 88t23 61h155q0 -73 -154 -159l-38 -21h-123z" />
    <glyph glyph-name="tcommaaccent" unicode="&#x21b;" horiz-adv-x="1159" 
d="M1104 700v-126h-447v-574h-155v574h-447v126h1049zM338 -246l39 31q75 60 98 88t23 61h155q0 -73 -154 -159l-38 -21h-123z" />
    <glyph glyph-name="Tcaron" unicode="&#x164;" horiz-adv-x="1159" 
d="M1104 700v-126h-447v-574h-155v574h-447v126h1049zM878 941v-4l-202 -163h-194l-202 163v4h141l159 -102l159 102h139z" />
    <glyph glyph-name="tcaron" unicode="&#x165;" horiz-adv-x="1159" 
d="M1104 700v-126h-447v-574h-155v574h-447v126h1049zM878 941v-4l-202 -163h-194l-202 163v4h141l159 -102l159 102h139z" />
    <glyph glyph-name="Umacron" unicode="&#x16a;" horiz-adv-x="1220" 
d="M610 109q224 0 296 72q49 49 49 142v377h155v-392q0 -131 -82 -213q-111 -111 -418 -111t-418 111q-82 82 -82 213v392h155v-377q0 -93 49 -142q72 -72 296 -72zM935 762h-650v97h650v-97z" />
    <glyph glyph-name="umacron" unicode="&#x16b;" horiz-adv-x="1220" 
d="M610 109q224 0 296 72q49 49 49 142v377h155v-392q0 -131 -82 -213q-111 -111 -418 -111t-418 111q-82 82 -82 213v392h155v-377q0 -93 49 -142q72 -72 296 -72zM935 762h-650v97h650v-97z" />
    <glyph glyph-name="Ubreve" unicode="&#x16c;" horiz-adv-x="1220" 
d="M610 109q224 0 296 72q49 49 49 142v377h155v-392q0 -131 -82 -213q-111 -111 -418 -111t-418 111q-82 82 -82 213v392h155v-377q0 -93 49 -142q72 -72 296 -72zM610 735q-76 0 -150.5 24.5t-125.5 64.5v96h5q54 -36 126 -59t145 -23t145 23t126 59h5v-96
q-51 -40 -125.5 -64.5t-150.5 -24.5z" />
    <glyph glyph-name="ubreve" unicode="&#x16d;" horiz-adv-x="1220" 
d="M610 109q224 0 296 72q49 49 49 142v377h155v-392q0 -131 -82 -213q-111 -111 -418 -111t-418 111q-82 82 -82 213v392h155v-377q0 -93 49 -142q72 -72 296 -72zM610 735q-76 0 -150.5 24.5t-125.5 64.5v96h5q54 -36 126 -59t145 -23t145 23t126 59h5v-96
q-51 -40 -125.5 -64.5t-150.5 -24.5z" />
    <glyph glyph-name="Uring" unicode="&#x16e;" horiz-adv-x="1220" 
d="M610 109q224 0 296 72q49 49 49 142v377h155v-392q0 -131 -82 -213q-111 -111 -418 -111t-418 111q-82 82 -82 213v392h155v-377q0 -93 49 -142q72 -72 296 -72zM610 671q-157 0 -212 55q-35 35 -35 93t35 93q55 55 212 55t212 -55q35 -35 35 -93t-35 -93
q-55 -55 -212 -55zM610 742q112 0 142 30q18 18 18 47t-18 47q-30 30 -142 30t-142 -30q-18 -18 -18 -47t18 -47q30 -30 142 -30z" />
    <glyph glyph-name="uring" unicode="&#x16f;" horiz-adv-x="1220" 
d="M610 109q224 0 296 72q49 49 49 142v377h155v-392q0 -131 -82 -213q-111 -111 -418 -111t-418 111q-82 82 -82 213v392h155v-377q0 -93 49 -142q72 -72 296 -72zM610 671q-157 0 -212 55q-35 35 -35 93t35 93q55 55 212 55t212 -55q35 -35 35 -93t-35 -93
q-55 -55 -212 -55zM610 742q112 0 142 30q18 18 18 47t-18 47q-30 30 -142 30t-142 -30q-18 -18 -18 -47t18 -47q30 -30 142 -30z" />
    <glyph glyph-name="Uhungarumlaut" unicode="&#x170;" horiz-adv-x="1220" 
d="M610 109q224 0 296 72q49 49 49 142v377h155v-392q0 -131 -82 -213q-111 -111 -418 -111t-418 111q-82 82 -82 213v392h155v-377q0 -93 49 -142q72 -72 296 -72zM344 745v5l213 166h212v-5l-301 -166h-124zM692 745v5l213 166h212v-5l-301 -166h-124z" />
    <glyph glyph-name="uhungarumlaut" unicode="&#x171;" horiz-adv-x="1220" 
d="M610 109q224 0 296 72q49 49 49 142v377h155v-392q0 -131 -82 -213q-111 -111 -418 -111t-418 111q-82 82 -82 213v392h155v-377q0 -93 49 -142q72 -72 296 -72zM344 745v5l213 166h212v-5l-301 -166h-124zM692 745v5l213 166h212v-5l-301 -166h-124z" />
    <glyph glyph-name="Uogonek" unicode="&#x172;" horiz-adv-x="1220" 
d="M831 -90v-100q-82 -17 -203 -17q-204 0 -244 40q-19 19 -19 54q0 32 25 57q22 23 81 47q-194 19 -279 104q-82 82 -82 213v392h155v-377q0 -93 49 -142q72 -72 296 -72t296 72q49 49 49 142v377h155v-392q0 -131 -82 -213q-111 -111 -418 -111h-1l-4 -2
q-103 -45 -114 -56q-6 -6 -6 -11q0 -4 3 -7q17 -17 148 -17q112 0 195 19z" />
    <glyph glyph-name="uogonek" unicode="&#x173;" horiz-adv-x="1220" 
d="M831 -90v-100q-82 -17 -203 -17q-204 0 -244 40q-19 19 -19 54q0 32 25 57q22 23 81 47q-194 19 -279 104q-82 82 -82 213v392h155v-377q0 -93 49 -142q72 -72 296 -72t296 72q49 49 49 142v377h155v-392q0 -131 -82 -213q-111 -111 -418 -111h-1l-4 -2
q-103 -45 -114 -56q-6 -6 -6 -11q0 -4 3 -7q17 -17 148 -17q112 0 195 19z" />
    <glyph glyph-name="Wcircumflex" unicode="&#x174;" horiz-adv-x="1796" 
d="M1600 700h165l-383 -704h-206l-278 554l-278 -554h-206l-383 704h172l318 -604l304 600h153l304 -600zM599 784v4l202 163h194l202 -163v-4h-141l-159 102l-159 -102h-139z" />
    <glyph glyph-name="wcircumflex" unicode="&#x175;" horiz-adv-x="1796" 
d="M1600 700h165l-383 -704h-206l-278 554l-278 -554h-206l-383 704h172l318 -604l304 600h153l304 -600zM599 784v4l202 163h194l202 -163v-4h-141l-159 102l-159 -102h-139z" />
    <glyph glyph-name="Ycircumflex" unicode="&#x176;" horiz-adv-x="1128" 
d="M567 394l349 306h202v-3l-477 -413v-284h-155v282l-476 415v3h208zM268 754v4l202 163h194l202 -163v-4h-141l-159 102l-159 -102h-139z" />
    <glyph glyph-name="ycircumflex" unicode="&#x177;" horiz-adv-x="1128" 
d="M567 394l349 306h202v-3l-477 -413v-284h-155v282l-476 415v3h208zM268 754v4l202 163h194l202 -163v-4h-141l-159 102l-159 -102h-139z" />
    <glyph glyph-name="Ydieresis" unicode="&#x178;" horiz-adv-x="1128" 
d="M567 394l349 306h202v-3l-477 -413v-284h-155v282l-476 415v3h208zM492 857v-113h-179v113h179zM821 857v-113h-179v113h179z" />
    <glyph glyph-name="Zacute" unicode="&#x179;" horiz-adv-x="1125" 
d="M96 574v126h965v-56l-708 -518h696v-126h-989v56l708 518h-672zM431 775v5l246 152h252v-5l-342 -152h-156z" />
    <glyph glyph-name="zacute" unicode="&#x17a;" horiz-adv-x="1125" 
d="M96 574v126h965v-56l-708 -518h696v-126h-989v56l708 518h-672zM431 775v5l246 152h252v-5l-342 -152h-156z" />
    <glyph glyph-name="Zdotaccent" unicode="&#x17b;" horiz-adv-x="1125" 
d="M96 574v126h965v-56l-708 -518h696v-126h-989v56l708 518h-672zM668 893v-116h-186v116h186z" />
    <glyph glyph-name="zdotaccent" unicode="&#x17c;" horiz-adv-x="1125" 
d="M96 574v126h965v-56l-708 -518h696v-126h-989v56l708 518h-672zM668 893v-116h-186v116h186z" />
    <glyph glyph-name="Zcaron" unicode="&#x17d;" horiz-adv-x="1125" 
d="M96 574v126h965v-56l-708 -518h696v-126h-989v56l708 518h-672zM874 941v-4l-202 -163h-194l-202 163v4h141l159 -102l159 102h139z" />
    <glyph glyph-name="zcaron" unicode="&#x17e;" horiz-adv-x="1125" 
d="M96 574v126h965v-56l-708 -518h696v-126h-989v56l708 518h-672zM874 941v-4l-202 -163h-194l-202 163v4h141l159 -102l159 102h139z" />
    <glyph glyph-name="Aringacute" unicode="&#x1fa;" horiz-adv-x="1228" 
d="M610 907q157 0 212 -55q35 -35 35 -93t-35 -93q-23 -23 -55 -35l439 -631h-180l-112 165h-608l-111 -165h-173l437 629q-35 11 -61 37q-35 35 -35 93t35 93q55 55 212 55zM610 615l-220 -326h441zM610 682q112 0 142 30q18 18 18 47t-18 47q-30 30 -142 30t-142 -30
q-18 -18 -18 -47t18 -47q30 -30 142 -30zM507 957v5l246 152h252v-5l-342 -152h-156z" />
    <glyph glyph-name="aringacute" unicode="&#x1fb;" horiz-adv-x="1228" 
d="M610 907q157 0 212 -55q35 -35 35 -93t-35 -93q-23 -23 -55 -35l439 -631h-180l-112 165h-608l-111 -165h-173l437 629q-35 11 -61 37q-35 35 -35 93t35 93q55 55 212 55zM610 615l-220 -326h441zM610 682q112 0 142 30q18 18 18 47t-18 47q-30 30 -142 30t-142 -30
q-18 -18 -18 -47t18 -47q30 -30 142 -30zM507 957v5l246 152h252v-5l-342 -152h-156z" />
    <glyph glyph-name="AEacute" unicode="&#x1fc;" horiz-adv-x="1775" 
d="M986 416h677v-124h-677v-166h691v-126h-836v168h-474l-175 -168h-192l738 700h939v-126h-691v-158zM497 292h344v329zM894 775v5l246 152h252v-5l-342 -152h-156z" />
    <glyph glyph-name="aeacute" unicode="&#x1fd;" horiz-adv-x="1775" 
d="M986 416h677v-124h-677v-166h691v-126h-836v168h-474l-175 -168h-192l738 700h939v-126h-691v-158zM497 292h344v329zM894 775v5l246 152h252v-5l-342 -152h-156z" />
    <glyph glyph-name="Oslashacute" unicode="&#x1fe;" 
d="M87 350q0 154 91 245q125 125 460 125t460 -125q91 -91 91 -245t-91 -245q-125 -125 -460 -125t-459 124q-92 92 -92 246zM243 350q0 -61 16 -99l680 287q-99 60 -301 60q-252 0 -336 -84q-59 -59 -59 -164zM1033 350q0 58 -17 98l-679 -287q97 -59 301 -59q252 0 337 85
q58 58 58 163zM494 785v5l246 152h252v-5l-342 -152h-156z" />
    <glyph glyph-name="oslashacute" unicode="&#x1ff;" 
d="M87 350q0 154 91 245q125 125 460 125t460 -125q91 -91 91 -245t-91 -245q-125 -125 -460 -125t-459 124q-92 92 -92 246zM243 350q0 -61 16 -99l680 287q-99 60 -301 60q-252 0 -336 -84q-59 -59 -59 -164zM1033 350q0 58 -17 98l-679 -287q97 -59 301 -59q252 0 337 85
q58 58 58 163zM494 785v5l246 152h252v-5l-342 -152h-156z" />
    <glyph glyph-name="Scommaaccent" unicode="&#x218;" horiz-adv-x="1143" 
d="M592 105q139 0 201.5 10.5t85.5 33.5q19 19 19 49q0 32 -17 49t-74.5 26t-235.5 18q-202 10 -288.5 29t-123.5 56q-40 40 -40 117q0 88 49 137q40 40 129 61.5t262 21.5q272 0 435 -65v-131q-81 34 -201.5 56t-233.5 22q-228 0 -269 -41q-17 -17 -17 -47q0 -28 15 -43
q17 -17 75.5 -26.5t220.5 -17.5q214 -11 301 -29.5t124 -55.5q43 -43 43 -121q0 -89 -49 -138q-42 -42 -135.5 -65.5t-275.5 -23.5q-145 0 -277.5 21t-214.5 57v131q78 -38 222.5 -64.5t269.5 -26.5zM373 -266l39 31q75 60 98 88t23 61h155q0 -73 -154 -159l-38 -21h-123z
" />
    <glyph glyph-name="scommaaccent" unicode="&#x219;" horiz-adv-x="1143" 
d="M592 105q139 0 201.5 10.5t85.5 33.5q19 19 19 49q0 32 -17 49t-74.5 26t-235.5 18q-202 10 -288.5 29t-123.5 56q-40 40 -40 117q0 88 49 137q40 40 129 61.5t262 21.5q272 0 435 -65v-131q-81 34 -201.5 56t-233.5 22q-228 0 -269 -41q-17 -17 -17 -47q0 -28 15 -43
q17 -17 75.5 -26.5t220.5 -17.5q214 -11 301 -29.5t124 -55.5q43 -43 43 -121q0 -89 -49 -138q-42 -42 -135.5 -65.5t-275.5 -23.5q-145 0 -277.5 21t-214.5 57v131q78 -38 222.5 -64.5t269.5 -26.5zM373 -266l39 31q75 60 98 88t23 61h155q0 -73 -154 -159l-38 -21h-123z
" />
    <glyph glyph-name="circumflex" unicode="&#x2c6;" horiz-adv-x="778" 
d="M90 784v4l202 163h194l202 -163v-4h-141l-159 102l-159 -102h-139z" />
    <glyph glyph-name="caron" unicode="&#x2c7;" horiz-adv-x="778" 
d="M688 941v-4l-202 -163h-194l-202 163v4h141l159 -102l159 102h139z" />
    <glyph glyph-name="breve" unicode="&#x2d8;" horiz-adv-x="732" 
d="M366 765q-76 0 -150.5 24.5t-125.5 64.5v96h5q54 -36 126 -59t145 -23t145 23t126 59h5v-96q-51 -40 -125.5 -64.5t-150.5 -24.5z" />
    <glyph glyph-name="dotaccent" unicode="&#x2d9;" horiz-adv-x="356" 
d="M271 893v-116h-186v116h186z" />
    <glyph glyph-name="ring" unicode="&#x2da;" horiz-adv-x="674" 
d="M337 701q-157 0 -212 55q-35 35 -35 93t35 93q55 55 212 55t212 -55q35 -35 35 -93t-35 -93q-55 -55 -212 -55zM337 772q112 0 142 30q18 18 18 47t-18 47q-30 30 -142 30t-142 -30q-18 -18 -18 -47t18 -47q30 -30 142 -30z" />
    <glyph glyph-name="ogonek" unicode="&#x2db;" horiz-adv-x="647" 
d="M556 -90v-100q-82 -17 -203 -17q-204 0 -244 40q-19 19 -19 54q0 32 25 57q20 20 59.5 37.5t126.5 45.5l22 7l77 -22l-70 -30q-103 -45 -114 -56q-6 -6 -6 -11q0 -4 3 -7q17 -17 148 -17q112 0 195 19z" />
    <glyph glyph-name="tilde" unicode="&#x2dc;" horiz-adv-x="692" 
d="M60 871q65 66 153 66q44 0 103 -20l75 -25q48 -16 88 -16q37 0 70 13.5t79 57.5h4v-110q-65 -66 -153 -66q-43 0 -102 20l-75 25q-48 16 -89 16q-37 0 -70 -13.5t-79 -57.5h-4v110z" />
    <glyph glyph-name="hungarumlaut" unicode="&#x2dd;" horiz-adv-x="847" 
d="M37 775v5l213 166h212v-5l-301 -166h-124zM385 775v5l213 166h212v-5l-301 -166h-124z" />
    <glyph glyph-name="commaaccent" unicode="&#x326;" horiz-adv-x="471" 
d="M46 -256l39 31q75 60 98 88t23 61h155q0 -73 -154 -159l-38 -21h-123z" />
    <glyph glyph-name="Wgrave" unicode="&#x1e80;" horiz-adv-x="1796" 
d="M1600 700h165l-383 -704h-206l-278 554l-278 -554h-206l-383 704h172l318 -604l304 600h153l304 -600zM949 780v-5h-156l-342 152v5h252z" />
    <glyph glyph-name="wgrave" unicode="&#x1e81;" horiz-adv-x="1796" 
d="M1600 700h165l-383 -704h-206l-278 554l-278 -554h-206l-383 704h172l318 -604l304 600h153l304 -600zM949 780v-5h-156l-342 152v5h252z" />
    <glyph glyph-name="Wacute" unicode="&#x1e82;" horiz-adv-x="1796" 
d="M1600 700h165l-383 -704h-206l-278 554l-278 -554h-206l-383 704h172l318 -604l304 600h153l304 -600zM841 775v5l246 152h252v-5l-342 -152h-156z" />
    <glyph glyph-name="wacute" unicode="&#x1e83;" horiz-adv-x="1796" 
d="M1600 700h165l-383 -704h-206l-278 554l-278 -554h-206l-383 704h172l318 -604l304 600h153l304 -600zM841 775v5l246 152h252v-5l-342 -152h-156z" />
    <glyph glyph-name="Wdieresis" unicode="&#x1e84;" horiz-adv-x="1796" 
d="M1600 700h165l-383 -704h-206l-278 554l-278 -554h-206l-383 704h172l318 -604l304 600h153l304 -600zM823 887v-113h-179v113h179zM1152 887v-113h-179v113h179z" />
    <glyph glyph-name="wdieresis" unicode="&#x1e85;" horiz-adv-x="1796" 
d="M1600 700h165l-383 -704h-206l-278 554l-278 -554h-206l-383 704h172l318 -604l304 600h153l304 -600zM823 887v-113h-179v113h179zM1152 887v-113h-179v113h179z" />
    <glyph glyph-name="Ygrave" unicode="&#x1ef2;" horiz-adv-x="1128" 
d="M567 394l349 306h202v-3l-477 -413v-284h-155v282l-476 415v3h208zM739 750v-5h-156l-342 152v5h252z" />
    <glyph glyph-name="ygrave" unicode="&#x1ef3;" horiz-adv-x="1128" 
d="M567 394l349 306h202v-3l-477 -413v-284h-155v282l-476 415v3h208zM739 750v-5h-156l-342 152v5h252z" />
    <glyph glyph-name="enspace" unicode="&#x2002;" horiz-adv-x="500" 
 />
    <glyph glyph-name="emspace" unicode="&#x2003;" horiz-adv-x="1000" 
 />
    <glyph glyph-name="threeperemspace" unicode="&#x2004;" horiz-adv-x="333" 
 />
    <glyph glyph-name="fourperemspace" unicode="&#x2005;" horiz-adv-x="250" 
 />
    <glyph glyph-name="thinspace" unicode="&#x2009;" horiz-adv-x="133" 
 />
    <glyph glyph-name="hairspace" unicode="&#x200a;" horiz-adv-x="75" 
 />
    <glyph glyph-name="endash" unicode="&#x2013;" horiz-adv-x="1058" 
d="M948 418v-129h-838v129h838z" />
    <glyph glyph-name="emdash" unicode="&#x2014;" horiz-adv-x="1612" 
d="M1502 418v-129h-1392v129h1392z" />
    <glyph glyph-name="quoteleft" unicode="&#x2018;" horiz-adv-x="426" 
d="M271 716h140l-215 -291h-178z" />
    <glyph glyph-name="quoteright" unicode="&#x2019;" horiz-adv-x="426" 
d="M155 425h-140l215 291h178z" />
    <glyph glyph-name="quotesinglbase" unicode="&#x201a;" horiz-adv-x="438" 
d="M145 -163h-140l215 291h178z" />
    <glyph glyph-name="quotedblleft" unicode="&#x201c;" horiz-adv-x="705" 
d="M271 716h135l-215 -299h-173zM557 716h135l-215 -299h-173z" />
    <glyph glyph-name="quotedblright" unicode="&#x201d;" horiz-adv-x="705" 
d="M148 417h-135l215 299h173zM434 417h-135l215 299h173z" />
    <glyph glyph-name="quotedblbase" unicode="&#x201e;" horiz-adv-x="719" 
d="M140 -171h-135l215 299h173zM426 -171h-135l215 299h173z" />
    <glyph glyph-name="dagger" unicode="&#x2020;" horiz-adv-x="612" 
d="M355 154h-98l3 327l-207 -3v89l207 -4l-3 137h98l-3 -137l207 4v-89l-208 3z" />
    <glyph glyph-name="daggerdbl" unicode="&#x2021;" horiz-adv-x="612" 
d="M53 567l208 -4l-4 137h98l-5 -137l209 4v-88l-209 3v-111l209 4v-88l-209 3l5 -136h-98l4 136l-208 -3v88l209 -4v111l-209 -3v88z" />
    <glyph glyph-name="bullet" unicode="&#x2022;" horiz-adv-x="712" 
d="M170 363q0 64 32 96q44 44 154 44t154 -44q32 -32 32 -96t-32 -96q-44 -44 -154 -44t-154 44q-32 32 -32 96z" />
    <glyph glyph-name="ellipsis" unicode="&#x2026;" horiz-adv-x="1103" 
d="M270 0h-169v161h169v-161zM636 0h-169v161h169v-161zM1002 0h-169v161h169v-161z" />
    <glyph glyph-name="guilsinglleft" unicode="&#x2039;" horiz-adv-x="558" 
d="M221 358l255 -203h-170l-236 179v48l252 180h171z" />
    <glyph glyph-name="guilsinglright" unicode="&#x203a;" horiz-adv-x="558" 
d="M337 359l-255 203h170l236 -179v-48l-252 -180h-171z" />
    <glyph glyph-name="Euro" unicode="&#x20ac;" horiz-adv-x="1230" 
d="M76 390l-1 76h147q17 89 71 143q53 53 145 80t260 27q216 0 415 -61v-136q-81 30 -196 51t-219 21q-237 0 -299 -62q-25 -25 -35 -63h564v-76h-576q-1 -13 -1 -40v-34h577v-76h-567q11 -45 36 -70q34 -34 103.5 -47.5t196.5 -13.5q105 0 222 19t196 47v-130
q-185 -61 -417 -61q-166 0 -259.5 25.5t-145.5 77.5q-55 54 -72 153h-145l-1 76h137v34q0 27 1 40h-137z" />
    <glyph glyph-name="published" unicode="&#x2117;" horiz-adv-x="1398" 
d="M699 -93q-367 0 -510 143q-101 101 -101 299t101 299q143 143 510 143t510 -143q101 -101 101 -299t-101 -299q-143 -143 -510 -143zM699 -29q332 0 453 121q82 82 82 257t-82 257q-121 121 -453 121t-453 -121q-82 -82 -82 -257t82 -257q121 -121 453 -121zM797 250
h-248v-115h-112v429h358q93 0 137.5 -11.5t71.5 -38.5q37 -38 37 -107q0 -67 -37 -104q-56 -53 -207 -53zM549 341h257q82 0 104 22q14 14 14 43q0 26 -14 42q-21 21 -104 21h-257v-128z" />
    <glyph glyph-name="servicemark" unicode="&#x2120;" horiz-adv-x="1455" 
d="M1206 713h149v-380h-99v287l-171 -287h-115l-171 287v-287h-98v380h151l177 -299zM564 691v-85q-96 38 -234 38q-119 0 -136 -17q-7 -7 -7 -18q0 -12 7 -19q14 -14 151 -18q182 -5 221 -44q28 -28 28 -73q0 -49 -30 -79q-46 -46 -215 -46q-161 0 -259 39v86
q42 -20 116.5 -34t145.5 -14q126 0 147 21q7 7 7 19t-7 19q-4 4 -10.5 7t-17 5t-19.5 3t-25.5 2t-26.5 1.5t-30.5 1.5t-29.5 1q-100 4 -147.5 13t-67.5 29q-27 27 -27 72q0 48 26 74q23 23 68.5 34.5t138.5 11.5q147 0 233 -30z" />
    <glyph glyph-name="trademark" unicode="&#x2122;" horiz-adv-x="1416" 
d="M1167 713h149v-380h-99v287l-171 -287h-115l-171 287v-287h-98v380h151l177 -299zM30 713h535v-84h-216v-296h-103v296h-216v84z" />
    <glyph glyph-name="minus" unicode="&#x2212;" horiz-adv-x="1042" 
d="M910 417v-127h-778v127h778z" />
    <glyph glyph-name="chevron.1_W" unicode="&#xe018;" horiz-adv-x="1030" 
d="M286 350l684 -347v-3h-270l-649 342v16l652 342h264v-3z" />
    <glyph glyph-name="chevron.1_E" unicode="&#xe019;" horiz-adv-x="1030" 
d="M744 350l-684 347v3h270l649 -342v-16l-652 -342h-264v3z" />
    <glyph glyph-name="arrowhead.1_W" unicode="&#xe034;" horiz-adv-x="1270" 
d="M1184 410v-120h-536l-240 6l670 -293v-3h-284l-728 342v16l724 342h284v-3l-664 -293l238 6h536z" />
    <glyph glyph-name="arrowhead.1_E" unicode="&#xe035;" horiz-adv-x="1270" 
d="M86 410h536l238 -6l-664 293v3h284l724 -342v-16l-732 -342h-277v3l667 293l-240 -6h-536v120z" />
    <glyph glyph-name="arrowshaft.1" unicode="&#xe044;" horiz-adv-x="880" 
d="M86 410h708v-120h-708v120z" />
    <glyph glyph-name="f_f" unicode="&#xfb00;" horiz-adv-x="2202" 
d="M287 401h719v-124h-719v-277h-155v700h888v-126h-733v-173zM1388 401h719v-124h-719v-277h-155v700h888v-126h-733v-173z" />
    <glyph glyph-name="fi" unicode="&#xfb01;" horiz-adv-x="1536" 
d="M287 401h719v-124h-719v-277h-155v700h888v-126h-733v-173zM1396 0h-155v700h155v-700z" />
    <glyph glyph-name="fl" unicode="&#xfb02;" horiz-adv-x="2149" 
d="M287 401h719v-124h-719v-277h-155v700h888v-126h-733v-173zM1388 128h704v-128h-859v700h155v-572z" />
    <glyph glyph-name="f_f_i" unicode="&#xfb03;" horiz-adv-x="2637" 
d="M287 401h719v-124h-719v-277h-155v700h888v-126h-733v-173zM1388 401h719v-124h-719v-277h-155v700h888v-126h-733v-173zM2497 0h-155v700h155v-700z" />
    <glyph glyph-name="f_f_l" unicode="&#xfb04;" horiz-adv-x="3250" 
d="M287 401h719v-124h-719v-277h-155v700h888v-126h-733v-173zM1388 401h719v-124h-719v-277h-155v700h888v-126h-733v-173zM2489 128h704v-128h-859v700h155v-572z" />
    <glyph glyph-name="G.alt" horiz-adv-x="1233" 
d="M642 591q-262 0 -343 -81q-56 -56 -56 -160q0 -105 56 -161q84 -84 343 -84q228 0 332 54v105h-406v124h557v-295q-169 -109 -484 -109q-195 0 -300 33.5t-163 91.5q-91 91 -91 241q0 151 91 242q124 124 462 124q148 0 271 -22.5t192 -57.5v-142q-79 43 -202 70t-259 27
z" />
    <glyph glyph-name="Q.alt" 
d="M638 720q335 0 460 -125q91 -91 91 -245t-91 -245q-61 -61 -171 -92l248 -140v-3h-252l-194 113q-43 -3 -91 -3q-335 0 -459 124q-92 92 -92 246t91 245q125 125 460 125zM638 598q-252 0 -336 -84q-59 -59 -59 -164q0 -102 61 -163q85 -85 334 -85q252 0 337 85
q58 58 58 163q0 102 -60 162q-86 86 -335 86z" />
    <glyph glyph-name="Gbreve.alt" horiz-adv-x="1233" 
d="M642 591q-262 0 -343 -81q-56 -56 -56 -160q0 -105 56 -161q84 -84 343 -84q228 0 332 54v105h-406v124h557v-295q-169 -109 -484 -109q-195 0 -300 33.5t-163 91.5q-91 91 -91 241q0 151 91 242q124 124 462 124q148 0 271 -22.5t192 -57.5v-142q-79 43 -202 70t-259 27
zM640 775q-76 0 -150.5 24.5t-125.5 64.5v96h5q54 -36 126 -59t145 -23t145 23t126 59h5v-96q-51 -40 -125.5 -64.5t-150.5 -24.5z" />
    <glyph glyph-name="Gcommaaccent.alt" horiz-adv-x="1233" 
d="M642 591q-262 0 -343 -81q-56 -56 -56 -160q0 -105 56 -161q84 -84 343 -84q228 0 332 54v105h-406v124h557v-295q-169 -109 -484 -109q-195 0 -300 33.5t-163 91.5q-91 91 -91 241q0 151 91 242q124 124 462 124q148 0 271 -22.5t192 -57.5v-142q-79 43 -202 70t-259 27
zM432 -266l39 31q75 60 98 88t23 61h155q0 -73 -154 -159l-38 -21h-123z" />
    <glyph glyph-name="Gdotaccent.alt" horiz-adv-x="1233" 
d="M642 591q-262 0 -343 -81q-56 -56 -56 -160q0 -105 56 -161q84 -84 343 -84q228 0 332 54v105h-406v124h557v-295q-169 -109 -484 -109q-195 0 -300 33.5t-163 91.5q-91 91 -91 241q0 151 91 242q124 124 462 124q148 0 271 -22.5t192 -57.5v-142q-79 43 -202 70t-259 27
zM733 903v-116h-186v116h186z" />
    <glyph glyph-name="three.alt" horiz-adv-x="1096" 
d="M107 574v126h909v-63l-477 -253l24 4q98 16 165 16q180 0 241 -61q50 -50 50 -135q0 -80 -50 -130q-94 -94 -412 -94q-125 0 -257 19.5t-201 46.5v127q77 -31 206.5 -51t251.5 -20q237 0 287 50q18 18 18 49q0 37 -18 55q-31 31 -231 31q-97 0 -269 -8l-80 -4v58l422 237
h-579z" />
    <glyph glyph-name="four.alt" horiz-adv-x="1219" 
d="M954 0h-150v168h-781v56l739 476h228v-3l-648 -413h463v209h149v-207h243v-118h-243v-168z" />
    <glyph glyph-name="colon.alt" horiz-adv-x="371" 
d="M270 78h-169v161h169v-161zM270 461h-169v161h169v-161z" />
    <glyph glyph-name="registered.alt" horiz-adv-x="1398" 
d="M699 -93q-367 0 -510 143q-101 101 -101 299t101 299q143 143 510 143t510 -143q101 -101 101 -299t-101 -299q-143 -143 -510 -143zM699 -29q332 0 453 121q82 82 82 257t-82 257q-121 121 -453 121t-453 -121q-82 -82 -82 -257t82 -257q121 -121 453 -121zM409 567h338
q100 0 146.5 -12.5t74.5 -40.5q39 -39 39 -103q0 -62 -38 -100q-39 -39 -132 -50l190 -122v-2h-164l-177 116h-165v-116h-112v430zM521 344h232q98 0 123 25q15 15 15 40q0 24 -16 40q-23 23 -122 23h-232v-128z" />
    <glyph glyph-name="slash.cap" horiz-adv-x="905" 
d="M188 0h-168l697 700h168z" />
    <glyph glyph-name="plus.cap" horiz-adv-x="1193" 
d="M521 700h151v-284h431v-129h-431v-287h-151v287h-431v129h431v284z" />
    <glyph glyph-name="asterisk.cap" horiz-adv-x="1306" 
d="M133 488v131l455 -179l-6 260h141l-6 -261l456 180v-131l-384 -138l384 -138v-131l-456 179l6 -260h-141l6 260l-455 -179v131l384 138z" />
    <glyph glyph-name="NUL" horiz-adv-x="0" 
 />
    <glyph glyph-name="hfjslug" horiz-adv-x="694" 
d="M644 -200h-208l-8 14h-163l-8 -14h-207v303q14 0 23 9.5t9 22.5t-9.5 22.5t-22.5 9.5v554h100l30 79h334l29 -79h101v-921zM400 563v-172h15v78h38v14h-38v66h43v14h-58zM184 563v-172h15v79h47v-79h15v172h-15v-79h-47v79h-15zM460 394q10 -4 21 -4q31 0 31 36v137h-16
v-137q0 -22 -16 -22q-8 0 -20 5v-15zM371 465l-13 3q-4 -18 -8 -30h-1l-16 31q23 21 23 42q0 31 -27 31q-12 0 -20 -9t-8 -22t14 -39q-23 -18 -23 -47q0 -16 8 -26.5t21 -10.5q19 0 29 24h1l12 -24l12 6l-17 32q6 14 13 39zM523 323v-46h8v12l8 8l15 -20h10l-20 26l18 20
h-10l-20 -24h-1v24h-8zM488 292l10 -15h9l-12 17q10 4 10 14q0 15 -17 15h-20v-46h8v15h12zM426 276q10 0 17 7t7 17q0 9 -7 16.5t-17 7.5t-17 -7.5t-7 -16.5q0 -10 7 -17t17 -7zM370 301l-13 22h-9l18 -29v-17h8v17l18 29h-9zM193 323v-46h34v7h-26v13h23v7h-23v12h26v7
h-34zM132 323v-46h8v32l25 -32h7v46h-8v-32l-25 32h-7zM241 323l14 -47h8l11 34h1l11 -34h8l14 47h-8l-10 -35h-1l-11 35h-7l-11 -35h-1l-10 35h-8zM327 479q-12 22 -12 32q0 19 14 19q13 0 13 -19q0 -15 -15 -32zM342 423q-8 -21 -20 -21q-16 0 -16 25q0 19 16 35zM487 299
h-11v17h11q10 0 10 -8q0 -9 -10 -9zM426 283q-16 0 -16 17q0 6 4.5 11.5t11.5 5.5t11.5 -5.5t4.5 -11.5q0 -17 -16 -17z" />
    <glyph glyph-name="g.alt" horiz-adv-x="1233" 
d="M642 591q-262 0 -343 -81q-56 -56 -56 -160q0 -105 56 -161q84 -84 343 -84q228 0 332 54v105h-406v124h557v-295q-169 -109 -484 -109q-195 0 -300 33.5t-163 91.5q-91 91 -91 241q0 151 91 242q124 124 462 124q148 0 271 -22.5t192 -57.5v-142q-79 43 -202 70t-259 27
z" />
    <glyph glyph-name="q.alt" 
d="M638 720q335 0 460 -125q91 -91 91 -245t-91 -245q-61 -61 -171 -92l248 -140v-3h-252l-194 113q-43 -3 -91 -3q-335 0 -459 124q-92 92 -92 246t91 245q125 125 460 125zM638 598q-252 0 -336 -84q-59 -59 -59 -164q0 -102 61 -163q85 -85 334 -85q252 0 337 85
q58 58 58 163q0 102 -60 162q-86 86 -335 86z" />
    <glyph glyph-name="gbreve.alt" horiz-adv-x="1233" 
d="M642 591q-262 0 -343 -81q-56 -56 -56 -160q0 -105 56 -161q84 -84 343 -84q228 0 332 54v105h-406v124h557v-295q-169 -109 -484 -109q-195 0 -300 33.5t-163 91.5q-91 91 -91 241q0 151 91 242q124 124 462 124q148 0 271 -22.5t192 -57.5v-142q-79 43 -202 70t-259 27
zM640 775q-76 0 -150.5 24.5t-125.5 64.5v96h5q54 -36 126 -59t145 -23t145 23t126 59h5v-96q-51 -40 -125.5 -64.5t-150.5 -24.5z" />
    <glyph glyph-name="gcommaaccent.alt" horiz-adv-x="1233" 
d="M642 591q-262 0 -343 -81q-56 -56 -56 -160q0 -105 56 -161q84 -84 343 -84q228 0 332 54v105h-406v124h557v-295q-169 -109 -484 -109q-195 0 -300 33.5t-163 91.5q-91 91 -91 241q0 151 91 242q124 124 462 124q148 0 271 -22.5t192 -57.5v-142q-79 43 -202 70t-259 27
zM432 -266l39 31q75 60 98 88t23 61h155q0 -73 -154 -159l-38 -21h-123z" />
    <glyph glyph-name="gdotaccent.alt" horiz-adv-x="1233" 
d="M642 591q-262 0 -343 -81q-56 -56 -56 -160q0 -105 56 -161q84 -84 343 -84q228 0 332 54v105h-406v124h557v-295q-169 -109 -484 -109q-195 0 -300 33.5t-163 91.5q-91 91 -91 241q0 151 91 242q124 124 462 124q148 0 271 -22.5t192 -57.5v-142q-79 43 -202 70t-259 27
zM733 903v-116h-186v116h186z" />
    <glyph glyph-name="i.dot" horiz-adv-x="435" 
d="M295 0h-155v700h155v-700zM310 893v-116h-186v116h186z" />
    <glyph glyph-name="caron.alt" horiz-adv-x="321" 
d="M166 421h-76l20 279h131z" />
    </font>
</defs>
</svg>
